<svg xmlns="http://www.w3.org/2000/svg" width="1060" height="620" viewBox="0 0 1060 620" role="img"><rect width="100%" height="100%" fill="#fbfaf7"/><style>text{font-family:-apple-system,BlinkMacSystemFont,Segoe UI,Arial,sans-serif;fill:#202124}.title{font-size:20px;font-weight:700}.subtitle{font-size:12px;fill:#6b7280}.axis{font-size:11px;fill:#6b7280}.label{font-size:11px}.value{font-size:11px;font-weight:600}</style><text x="180" y="30" class="title">Replication is uneven within and across benchmarks</text><text x="180" y="50" class="subtitle">Finished benchmark × model cells; top benchmarks by finished runs</text><rect x="180" y="64" width="12" height="12" fill="#c9ced6"/><text x="198" y="75" class="axis">1</text><rect x="285" y="64" width="12" height="12" fill="#9eb4cb"/><text x="303" y="75" class="axis">2</text><rect x="390" y="64" width="12" height="12" fill="#3568a9"/><text x="408" y="75" class="axis">3-4</text><rect x="495" y="64" width="12" height="12" fill="#d9783a"/><text x="513" y="75" class="axis">5-9</text><rect x="600" y="64" width="12" height="12" fill="#b84a4a"/><text x="618" y="75" class="axis">&gt;=10</text><text x="170" y="106.1" text-anchor="end" class="label">vcb</text><rect x="180.0" y="95.6" width="229.7" height="19.2" fill="#c9ced6"/><rect x="409.7" y="95.6" width="114.9" height="19.2" fill="#9eb4cb"/><rect x="524.6" y="95.6" width="215.4" height="19.2" fill="#3568a9"/><rect x="740.0" y="95.6" width="114.9" height="19.2" fill="#d9783a"/><rect x="854.9" y="95.6" width="86.2" height="19.2" fill="#b84a4a"/><text x="947.0" y="108.9" class="axis">106</text><text x="170" y="137.1" text-anchor="end" class="label">terminal-bench</text><rect x="180.0" y="126.6" width="107.7" height="19.2" fill="#c9ced6"/><rect x="287.7" y="126.6" width="43.1" height="19.2" fill="#9eb4cb"/><rect x="330.8" y="126.6" width="323.1" height="19.2" fill="#3568a9"/><rect x="653.8" y="126.6" width="172.3" height="19.2" fill="#d9783a"/><rect x="826.1" y="126.6" width="100.5" height="19.2" fill="#b84a4a"/><text x="932.6" y="139.9" class="axis">104</text><text x="170" y="168.1" text-anchor="end" class="label">swebench</text><rect x="180.0" y="157.6" width="280.0" height="19.2" fill="#c9ced6"/><rect x="460.0" y="157.6" width="143.6" height="19.2" fill="#9eb4cb"/><rect x="603.6" y="157.6" width="179.5" height="19.2" fill="#3568a9"/><rect x="783.1" y="157.6" width="50.3" height="19.2" fill="#d9783a"/><rect x="833.3" y="157.6" width="43.1" height="19.2" fill="#b84a4a"/><text x="882.4" y="170.9" class="axis">97</text><text x="170" y="199.1" text-anchor="end" class="label">snap</text><rect x="180.0" y="188.6" width="172.3" height="19.2" fill="#c9ced6"/><rect x="352.3" y="188.6" width="64.6" height="19.2" fill="#9eb4cb"/><rect x="416.9" y="188.6" width="136.4" height="19.2" fill="#3568a9"/><rect x="553.3" y="188.6" width="28.7" height="19.2" fill="#d9783a"/><rect x="582.0" y="188.6" width="114.9" height="19.2" fill="#b84a4a"/><text x="702.9" y="201.9" class="axis">72</text><text x="170" y="230.1" text-anchor="end" class="label">code-migration</text><rect x="180.0" y="219.6" width="100.5" height="19.2" fill="#c9ced6"/><rect x="280.5" y="219.6" width="79.0" height="19.2" fill="#9eb4cb"/><rect x="359.5" y="219.6" width="57.4" height="19.2" fill="#3568a9"/><rect x="416.9" y="219.6" width="136.4" height="19.2" fill="#d9783a"/><rect x="553.3" y="219.6" width="50.3" height="19.2" fill="#b84a4a"/><text x="609.6" y="232.9" class="axis">59</text><text x="170" y="261.1" text-anchor="end" class="label">fabv2-internal</text><rect x="180.0" y="250.6" width="215.4" height="19.2" fill="#c9ced6"/><rect x="395.4" y="250.6" width="71.8" height="19.2" fill="#9eb4cb"/><rect x="467.2" y="250.6" width="315.9" height="19.2" fill="#3568a9"/><rect x="783.1" y="250.6" width="136.4" height="19.2" fill="#d9783a"/><rect x="919.5" y="250.6" width="28.7" height="19.2" fill="#b84a4a"/><text x="954.2" y="263.9" class="axis">107</text><text x="170" y="292.1" text-anchor="end" class="label">skillsbench</text><rect x="180.0" y="281.6" width="43.1" height="19.2" fill="#c9ced6"/><rect x="223.1" y="281.6" width="28.7" height="19.2" fill="#9eb4cb"/><rect x="251.8" y="281.6" width="28.7" height="19.2" fill="#3568a9"/><rect x="280.5" y="281.6" width="143.6" height="19.2" fill="#d9783a"/><rect x="424.1" y="281.6" width="71.8" height="19.2" fill="#b84a4a"/><text x="501.9" y="294.9" class="axis">44</text><text x="170" y="323.1" text-anchor="end" class="label">cyberbench</text><rect x="180.0" y="312.6" width="93.3" height="19.2" fill="#c9ced6"/><rect x="273.3" y="312.6" width="100.5" height="19.2" fill="#9eb4cb"/><rect x="373.8" y="312.6" width="86.2" height="19.2" fill="#3568a9"/><rect x="460.0" y="312.6" width="43.1" height="19.2" fill="#d9783a"/><rect x="503.1" y="312.6" width="71.8" height="19.2" fill="#b84a4a"/><text x="580.9" y="325.9" class="axis">55</text><text x="170" y="354.1" text-anchor="end" class="label">valsmith</text><rect x="180.0" y="343.6" width="7.2" height="19.2" fill="#c9ced6"/><rect x="187.2" y="343.6" width="21.5" height="19.2" fill="#9eb4cb"/><rect x="208.7" y="343.6" width="35.9" height="19.2" fill="#3568a9"/><rect x="244.6" y="343.6" width="14.4" height="19.2" fill="#d9783a"/><rect x="259.0" y="343.6" width="107.7" height="19.2" fill="#b84a4a"/><text x="372.7" y="356.9" class="axis">26</text><text x="170" y="385.1" text-anchor="end" class="label">proof-bench</text><rect x="180.0" y="374.6" width="323.1" height="19.2" fill="#c9ced6"/><rect x="503.1" y="374.6" width="86.2" height="19.2" fill="#9eb4cb"/><rect x="589.2" y="374.6" width="93.3" height="19.2" fill="#3568a9"/><rect x="682.5" y="374.6" width="28.7" height="19.2" fill="#d9783a"/><rect x="711.3" y="374.6" width="14.4" height="19.2" fill="#b84a4a"/><text x="731.6" y="387.9" class="axis">76</text><text x="170" y="416.1" text-anchor="end" class="label">legal-research</text><rect x="180.0" y="405.6" width="165.1" height="19.2" fill="#c9ced6"/><rect x="345.1" y="405.6" width="57.4" height="19.2" fill="#9eb4cb"/><rect x="402.6" y="405.6" width="136.4" height="19.2" fill="#3568a9"/><rect x="539.0" y="405.6" width="21.5" height="19.2" fill="#b84a4a"/><text x="566.5" y="418.9" class="axis">53</text><text x="170" y="447.1" text-anchor="end" class="label">harvey-legal-agent</text><rect x="180.0" y="436.6" width="229.7" height="19.2" fill="#c9ced6"/><rect x="409.7" y="436.6" width="79.0" height="19.2" fill="#9eb4cb"/><rect x="488.7" y="436.6" width="50.3" height="19.2" fill="#3568a9"/><rect x="539.0" y="436.6" width="35.9" height="19.2" fill="#d9783a"/><rect x="574.9" y="436.6" width="14.4" height="19.2" fill="#b84a4a"/><text x="595.2" y="449.9" class="axis">57</text><text x="170" y="478.1" text-anchor="end" class="label">programbench</text><rect x="180.0" y="467.6" width="294.4" height="19.2" fill="#c9ced6"/><rect x="474.4" y="467.6" width="71.8" height="19.2" fill="#9eb4cb"/><rect x="546.1" y="467.6" width="79.0" height="19.2" fill="#3568a9"/><rect x="625.1" y="467.6" width="21.5" height="19.2" fill="#d9783a"/><rect x="646.7" y="467.6" width="7.2" height="19.2" fill="#b84a4a"/><text x="659.8" y="480.9" class="axis">66</text><text x="170" y="509.1" text-anchor="end" class="label">emb</text><rect x="180.0" y="498.6" width="186.7" height="19.2" fill="#c9ced6"/><rect x="366.7" y="498.6" width="79.0" height="19.2" fill="#9eb4cb"/><rect x="445.6" y="498.6" width="43.1" height="19.2" fill="#3568a9"/><rect x="488.7" y="498.6" width="35.9" height="19.2" fill="#d9783a"/><rect x="524.6" y="498.6" width="21.5" height="19.2" fill="#b84a4a"/><text x="552.1" y="511.9" class="axis">51</text><text x="170" y="540.1" text-anchor="end" class="label">ioi</text><rect x="180.0" y="529.6" width="35.9" height="19.2" fill="#c9ced6"/><rect x="215.9" y="529.6" width="93.3" height="19.2" fill="#9eb4cb"/><rect x="309.2" y="529.6" width="71.8" height="19.2" fill="#3568a9"/><rect x="381.0" y="529.6" width="50.3" height="19.2" fill="#d9783a"/><rect x="431.3" y="529.6" width="7.2" height="19.2" fill="#b84a4a"/><text x="444.5" y="542.9" class="axis">36</text></svg>