<svg xmlns="http://www.w3.org/2000/svg" width="1005" height="920" viewBox="0 0 1005 920" role="img"><rect width="100%" height="100%" fill="#fbfaf7"/><style>text{font-family:-apple-system,BlinkMacSystemFont,Segoe UI,Arial,sans-serif;fill:#202124}.title{font-size:20px;font-weight:700}.subtitle{font-size:12px;fill:#6b7280}.axis{font-size:11px;fill:#6b7280}.label{font-size:11px}.value{font-size:11px;font-weight:600}</style><text x="20" y="30" class="title">terminal-bench: raw task-outcome correlation</text><text x="20" y="51" class="subtitle">Top 20 systems by mean pass rate; pairwise-complete tasks</text><text transform="translate(254.2 172) rotate(-55)" text-anchor="start" class="axis">openai/iris-alpha</text><text transform="translate(289.2 172) rotate(-55)" text-anchor="start" class="axis">openai/kindle-alpha</text><text transform="translate(324.2 172) rotate(-55)" text-anchor="start" class="axis">openai/iris-alpha-code-mode</text><text transform="translate(359.2 172) rotate(-55)" text-anchor="start" class="axis">openai/joule-alpha-high</text><text transform="translate(394.2 172) rotate(-55)" text-anchor="start" class="axis">anthropic/claude-fruitcake-eap-high</text><text transform="translate(429.2 172) rotate(-55)" text-anchor="start" class="axis">openai/gpt-5.6-luna</text><text transform="translate(464.2 172) rotate(-55)" text-anchor="start" class="axis">openai/gpt-5.5-high</text><text transform="translate(499.2 172) rotate(-55)" text-anchor="start" class="axis">grok/v9-carrot</text><text transform="translate(534.2 172) rotate(-55)" text-anchor="start" class="axis">google/gemini-3.5-flash</text><text transform="translate(569.2 172) rotate(-55)" text-anchor="start" class="axis">grok/v9m-exp-0805-row17-47p8-api-medium</text><text transform="translate(604.2 172) rotate(-55)" text-anchor="start" class="axis">meta/super_nova_dist</text><text transform="translate(639.2 172) rotate(-55)" text-anchor="start" class="axis">anthropic/claude-sonnet-5-high</text><text transform="translate(674.2 172) rotate(-55)" text-anchor="start" class="axis">openai/nova-alpha</text><text transform="translate(709.2 172) rotate(-55)" text-anchor="start" class="axis">grok/v9-stickynote</text><text transform="translate(744.2 172) rotate(-55)" text-anchor="start" class="axis">meta/glassy_lagoon</text><text transform="translate(779.2 172) rotate(-55)" text-anchor="start" class="axis">openai/firefly-alpha-high</text><text transform="translate(814.2 172) rotate(-55)" text-anchor="start" class="axis">zai/glm-5.2-max-tokens-48k-top-p-1</text><text transform="translate(849.2 172) rotate(-55)" text-anchor="start" class="axis">meta/super_nova_vals</text><text transform="translate(884.2 172) rotate(-55)" text-anchor="start" class="axis">google/gemini-3.1-pro-preview</text><text transform="translate(919.2 172) rotate(-55)" text-anchor="start" class="axis">anthropic/claude-opus-4-7</text><text x="227" y="202.8" text-anchor="end" class="axis">openai/iris-alpha</text><rect x="235" y="180" width="35" height="35" fill="#2f6697" stroke="#fbfaf7"/><rect x="270" y="180" width="35" height="35" fill="#a1b8ca" stroke="#fbfaf7"/><rect x="305" y="180" width="35" height="35" fill="#7699b7" stroke="#fbfaf7"/><rect x="340" y="180" width="35" height="35" fill="#a6bccc" stroke="#fbfaf7"/><rect x="375" y="180" width="35" height="35" fill="#a4bacb" stroke="#fbfaf7"/><rect x="410" y="180" width="35" height="35" fill="#c2d0d8" stroke="#fbfaf7"/><rect x="445" y="180" width="35" height="35" fill="#d4dde0" stroke="#fbfaf7"/><rect x="480" y="180" width="35" height="35" fill="#acc0ce" stroke="#fbfaf7"/><rect x="515" y="180" width="35" height="35" fill="#b9c9d4" stroke="#fbfaf7"/><rect x="550" y="180" width="35" height="35" fill="#a7bdcc" stroke="#fbfaf7"/><rect x="585" y="180" width="35" height="35" fill="#bfcdd7" stroke="#fbfaf7"/><rect x="620" y="180" width="35" height="35" fill="#94afc4" stroke="#fbfaf7"/><rect x="655" y="180" width="35" height="35" fill="#b9c9d4" stroke="#fbfaf7"/><rect x="690" y="180" width="35" height="35" fill="#d4dde0" stroke="#fbfaf7"/><rect x="725" y="180" width="35" height="35" fill="#bacad4" stroke="#fbfaf7"/><rect x="760" y="180" width="35" height="35" fill="#cad5dc" stroke="#fbfaf7"/><rect x="795" y="180" width="35" height="35" fill="#a5bbcb" stroke="#fbfaf7"/><rect x="830" y="180" width="35" height="35" fill="#a6bbcc" stroke="#fbfaf7"/><rect x="865" y="180" width="35" height="35" fill="#9ab3c7" stroke="#fbfaf7"/><rect x="900" y="180" width="35" height="35" fill="#c7d3da" stroke="#fbfaf7"/><text x="227" y="237.8" text-anchor="end" class="axis">openai/kindle-alpha</text><rect x="235" y="215" width="35" height="35" fill="#a1b8ca" stroke="#fbfaf7"/><rect x="270" y="215" width="35" height="35" fill="#2f6697" stroke="#fbfaf7"/><rect x="305" y="215" width="35" height="35" fill="#a6bbcc" stroke="#fbfaf7"/><rect x="340" y="215" width="35" height="35" fill="#a6bccc" stroke="#fbfaf7"/><rect x="375" y="215" width="35" height="35" fill="#c2cfd8" stroke="#fbfaf7"/><rect x="410" y="215" width="35" height="35" fill="#d1dadf" stroke="#fbfaf7"/><rect x="445" y="215" width="35" height="35" fill="#d4dde0" stroke="#fbfaf7"/><rect x="480" y="215" width="35" height="35" fill="#c8d4db" stroke="#fbfaf7"/><rect x="515" y="215" width="35" height="35" fill="#d6dee1" stroke="#fbfaf7"/><rect x="550" y="215" width="35" height="35" fill="#bccbd6" stroke="#fbfaf7"/><rect x="585" y="215" width="35" height="35" fill="#cdd8dd" stroke="#fbfaf7"/><rect x="620" y="215" width="35" height="35" fill="#bfcdd7" stroke="#fbfaf7"/><rect x="655" y="215" width="35" height="35" fill="#d4dde0" stroke="#fbfaf7"/><rect x="690" y="215" width="35" height="35" fill="#d4dde0" stroke="#fbfaf7"/><rect x="725" y="215" width="35" height="35" fill="#e2e7e7" stroke="#fbfaf7"/><rect x="760" y="215" width="35" height="35" fill="#d7dfe2" stroke="#fbfaf7"/><rect x="795" y="215" width="35" height="35" fill="#ccd7dd" stroke="#fbfaf7"/><rect x="830" y="215" width="35" height="35" fill="#c2d0d8" stroke="#fbfaf7"/><rect x="865" y="215" width="35" height="35" fill="#c2d0d8" stroke="#fbfaf7"/><rect x="900" y="215" width="35" height="35" fill="#d4dde0" stroke="#fbfaf7"/><text x="227" y="272.8" text-anchor="end" class="axis">openai/iris-alpha-code-mode</text><rect x="235" y="250" width="35" height="35" fill="#7699b7" stroke="#fbfaf7"/><rect x="270" y="250" width="35" height="35" fill="#a6bbcc" stroke="#fbfaf7"/><rect x="305" y="250" width="35" height="35" fill="#2f6697" stroke="#fbfaf7"/><rect x="340" y="250" width="35" height="35" fill="#9cb4c7" stroke="#fbfaf7"/><rect x="375" y="250" width="35" height="35" fill="#b8c8d4" stroke="#fbfaf7"/><rect x="410" y="250" width="35" height="35" fill="#9bb4c7" stroke="#fbfaf7"/><rect x="445" y="250" width="35" height="35" fill="#9fb7c9" stroke="#fbfaf7"/><rect x="480" y="250" width="35" height="35" fill="#bfcdd7" stroke="#fbfaf7"/><rect x="515" y="250" width="35" height="35" fill="#b0c3d0" stroke="#fbfaf7"/><rect x="550" y="250" width="35" height="35" fill="#82a2bc" stroke="#fbfaf7"/><rect x="585" y="250" width="35" height="35" fill="#a9bdcd" stroke="#fbfaf7"/><rect x="620" y="250" width="35" height="35" fill="#a9bdcd" stroke="#fbfaf7"/><rect x="655" y="250" width="35" height="35" fill="#b1c4d1" stroke="#fbfaf7"/><rect x="690" y="250" width="35" height="35" fill="#ccd7dc" stroke="#fbfaf7"/><rect x="725" y="250" width="35" height="35" fill="#a4bacb" stroke="#fbfaf7"/><rect x="760" y="250" width="35" height="35" fill="#c2d0d8" stroke="#fbfaf7"/><rect x="795" y="250" width="35" height="35" fill="#9eb6c8" stroke="#fbfaf7"/><rect x="830" y="250" width="35" height="35" fill="#91acc2" stroke="#fbfaf7"/><rect x="865" y="250" width="35" height="35" fill="#a1b8c9" stroke="#fbfaf7"/><rect x="900" y="250" width="35" height="35" fill="#c0ced7" stroke="#fbfaf7"/><text x="227" y="307.8" text-anchor="end" class="axis">openai/joule-alpha-high</text><rect x="235" y="285" width="35" height="35" fill="#a6bccc" stroke="#fbfaf7"/><rect x="270" y="285" width="35" height="35" fill="#a6bccc" stroke="#fbfaf7"/><rect x="305" y="285" width="35" height="35" fill="#9cb4c7" stroke="#fbfaf7"/><rect x="340" y="285" width="35" height="35" fill="#2f6697" stroke="#fbfaf7"/><rect x="375" y="285" width="35" height="35" fill="#b8c8d4" stroke="#fbfaf7"/><rect x="410" y="285" width="35" height="35" fill="#aabecd" stroke="#fbfaf7"/><rect x="445" y="285" width="35" height="35" fill="#91acc2" stroke="#fbfaf7"/><rect x="480" y="285" width="35" height="35" fill="#a3bacb" stroke="#fbfaf7"/><rect x="515" y="285" width="35" height="35" fill="#becdd6" stroke="#fbfaf7"/><rect x="550" y="285" width="35" height="35" fill="#a6bbcc" stroke="#fbfaf7"/><rect x="585" y="285" width="35" height="35" fill="#b7c8d3" stroke="#fbfaf7"/><rect x="620" y="285" width="35" height="35" fill="#a9becd" stroke="#fbfaf7"/><rect x="655" y="285" width="35" height="35" fill="#a4bacb" stroke="#fbfaf7"/><rect x="690" y="285" width="35" height="35" fill="#b2c4d1" stroke="#fbfaf7"/><rect x="725" y="285" width="35" height="35" fill="#a5bbcb" stroke="#fbfaf7"/><rect x="760" y="285" width="35" height="35" fill="#b5c7d3" stroke="#fbfaf7"/><rect x="795" y="285" width="35" height="35" fill="#b8c9d4" stroke="#fbfaf7"/><rect x="830" y="285" width="35" height="35" fill="#bbcad5" stroke="#fbfaf7"/><rect x="865" y="285" width="35" height="35" fill="#94afc4" stroke="#fbfaf7"/><rect x="900" y="285" width="35" height="35" fill="#a7bdcc" stroke="#fbfaf7"/><text x="227" y="342.8" text-anchor="end" class="axis">anthropic/claude-fruitcake-eap-high</text><rect x="235" y="320" width="35" height="35" fill="#a4bacb" stroke="#fbfaf7"/><rect x="270" y="320" width="35" height="35" fill="#c2cfd8" stroke="#fbfaf7"/><rect x="305" y="320" width="35" height="35" fill="#b8c8d4" stroke="#fbfaf7"/><rect x="340" y="320" width="35" height="35" fill="#b8c8d4" stroke="#fbfaf7"/><rect x="375" y="320" width="35" height="35" fill="#2f6697" stroke="#fbfaf7"/><rect x="410" y="320" width="35" height="35" fill="#aabecd" stroke="#fbfaf7"/><rect x="445" y="320" width="35" height="35" fill="#bbcbd5" stroke="#fbfaf7"/><rect x="480" y="320" width="35" height="35" fill="#97b1c5" stroke="#fbfaf7"/><rect x="515" y="320" width="35" height="35" fill="#b6c7d3" stroke="#fbfaf7"/><rect x="550" y="320" width="35" height="35" fill="#a8bdcd" stroke="#fbfaf7"/><rect x="585" y="320" width="35" height="35" fill="#c5d2da" stroke="#fbfaf7"/><rect x="620" y="320" width="35" height="35" fill="#9fb7c9" stroke="#fbfaf7"/><rect x="655" y="320" width="35" height="35" fill="#a7bdcc" stroke="#fbfaf7"/><rect x="690" y="320" width="35" height="35" fill="#cdd7dd" stroke="#fbfaf7"/><rect x="725" y="320" width="35" height="35" fill="#9bb4c7" stroke="#fbfaf7"/><rect x="760" y="320" width="35" height="35" fill="#ccd7dd" stroke="#fbfaf7"/><rect x="795" y="320" width="35" height="35" fill="#aec2d0" stroke="#fbfaf7"/><rect x="830" y="320" width="35" height="35" fill="#9eb6c8" stroke="#fbfaf7"/><rect x="865" y="320" width="35" height="35" fill="#a6bbcc" stroke="#fbfaf7"/><rect x="900" y="320" width="35" height="35" fill="#acc0cf" stroke="#fbfaf7"/><text x="227" y="377.8" text-anchor="end" class="axis">openai/gpt-5.6-luna</text><rect x="235" y="355" width="35" height="35" fill="#c2d0d8" stroke="#fbfaf7"/><rect x="270" y="355" width="35" height="35" fill="#d1dadf" stroke="#fbfaf7"/><rect x="305" y="355" width="35" height="35" fill="#9bb4c7" stroke="#fbfaf7"/><rect x="340" y="355" width="35" height="35" fill="#aabecd" stroke="#fbfaf7"/><rect x="375" y="355" width="35" height="35" fill="#aabecd" stroke="#fbfaf7"/><rect x="410" y="355" width="35" height="35" fill="#2f6697" stroke="#fbfaf7"/><rect x="445" y="355" width="35" height="35" fill="#aec2cf" stroke="#fbfaf7"/><rect x="480" y="355" width="35" height="35" fill="#93aec3" stroke="#fbfaf7"/><rect x="515" y="355" width="35" height="35" fill="#c0ced7" stroke="#fbfaf7"/><rect x="550" y="355" width="35" height="35" fill="#9cb4c7" stroke="#fbfaf7"/><rect x="585" y="355" width="35" height="35" fill="#a1b8c9" stroke="#fbfaf7"/><rect x="620" y="355" width="35" height="35" fill="#a5bbcb" stroke="#fbfaf7"/><rect x="655" y="355" width="35" height="35" fill="#b4c6d2" stroke="#fbfaf7"/><rect x="690" y="355" width="35" height="35" fill="#9bb4c7" stroke="#fbfaf7"/><rect x="725" y="355" width="35" height="35" fill="#9fb7c9" stroke="#fbfaf7"/><rect x="760" y="355" width="35" height="35" fill="#a0b7c9" stroke="#fbfaf7"/><rect x="795" y="355" width="35" height="35" fill="#bbcbd5" stroke="#fbfaf7"/><rect x="830" y="355" width="35" height="35" fill="#7b9db9" stroke="#fbfaf7"/><rect x="865" y="355" width="35" height="35" fill="#a6bccc" stroke="#fbfaf7"/><rect x="900" y="355" width="35" height="35" fill="#adc1cf" stroke="#fbfaf7"/><text x="227" y="412.8" text-anchor="end" class="axis">openai/gpt-5.5-high</text><rect x="235" y="390" width="35" height="35" fill="#d4dde0" stroke="#fbfaf7"/><rect x="270" y="390" width="35" height="35" fill="#d4dde0" stroke="#fbfaf7"/><rect x="305" y="390" width="35" height="35" fill="#9fb7c9" stroke="#fbfaf7"/><rect x="340" y="390" width="35" height="35" fill="#91acc2" stroke="#fbfaf7"/><rect x="375" y="390" width="35" height="35" fill="#bbcbd5" stroke="#fbfaf7"/><rect x="410" y="390" width="35" height="35" fill="#aec2cf" stroke="#fbfaf7"/><rect x="445" y="390" width="35" height="35" fill="#2f6697" stroke="#fbfaf7"/><rect x="480" y="390" width="35" height="35" fill="#aabecd" stroke="#fbfaf7"/><rect x="515" y="390" width="35" height="35" fill="#9db5c8" stroke="#fbfaf7"/><rect x="550" y="390" width="35" height="35" fill="#aec1cf" stroke="#fbfaf7"/><rect x="585" y="390" width="35" height="35" fill="#cbd6dc" stroke="#fbfaf7"/><rect x="620" y="390" width="35" height="35" fill="#d7dfe2" stroke="#fbfaf7"/><rect x="655" y="390" width="35" height="35" fill="#adc1cf" stroke="#fbfaf7"/><rect x="690" y="390" width="35" height="35" fill="#adc1cf" stroke="#fbfaf7"/><rect x="725" y="390" width="35" height="35" fill="#bacad4" stroke="#fbfaf7"/><rect x="760" y="390" width="35" height="35" fill="#b1c4d1" stroke="#fbfaf7"/><rect x="795" y="390" width="35" height="35" fill="#b4c6d2" stroke="#fbfaf7"/><rect x="830" y="390" width="35" height="35" fill="#c4d1d9" stroke="#fbfaf7"/><rect x="865" y="390" width="35" height="35" fill="#acc0ce" stroke="#fbfaf7"/><rect x="900" y="390" width="35" height="35" fill="#b2c4d1" stroke="#fbfaf7"/><text x="227" y="447.8" text-anchor="end" class="axis">grok/v9-carrot</text><rect x="235" y="425" width="35" height="35" fill="#acc0ce" stroke="#fbfaf7"/><rect x="270" y="425" width="35" height="35" fill="#c8d4db" stroke="#fbfaf7"/><rect x="305" y="425" width="35" height="35" fill="#bfcdd7" stroke="#fbfaf7"/><rect x="340" y="425" width="35" height="35" fill="#a3bacb" stroke="#fbfaf7"/><rect x="375" y="425" width="35" height="35" fill="#97b1c5" stroke="#fbfaf7"/><rect x="410" y="425" width="35" height="35" fill="#93aec3" stroke="#fbfaf7"/><rect x="445" y="425" width="35" height="35" fill="#aabecd" stroke="#fbfaf7"/><rect x="480" y="425" width="35" height="35" fill="#2f6697" stroke="#fbfaf7"/><rect x="515" y="425" width="35" height="35" fill="#8daac1" stroke="#fbfaf7"/><rect x="550" y="425" width="35" height="35" fill="#7a9cb8" stroke="#fbfaf7"/><rect x="585" y="425" width="35" height="35" fill="#7d9eba" stroke="#fbfaf7"/><rect x="620" y="425" width="35" height="35" fill="#7d9eba" stroke="#fbfaf7"/><rect x="655" y="425" width="35" height="35" fill="#a5bbcb" stroke="#fbfaf7"/><rect x="690" y="425" width="35" height="35" fill="#7599b6" stroke="#fbfaf7"/><rect x="725" y="425" width="35" height="35" fill="#7699b6" stroke="#fbfaf7"/><rect x="760" y="425" width="35" height="35" fill="#9eb5c8" stroke="#fbfaf7"/><rect x="795" y="425" width="35" height="35" fill="#95afc4" stroke="#fbfaf7"/><rect x="830" y="425" width="35" height="35" fill="#7e9fba" stroke="#fbfaf7"/><rect x="865" y="425" width="35" height="35" fill="#82a2bc" stroke="#fbfaf7"/><rect x="900" y="425" width="35" height="35" fill="#95afc4" stroke="#fbfaf7"/><text x="227" y="482.8" text-anchor="end" class="axis">google/gemini-3.5-flash</text><rect x="235" y="460" width="35" height="35" fill="#b9c9d4" stroke="#fbfaf7"/><rect x="270" y="460" width="35" height="35" fill="#d6dee1" stroke="#fbfaf7"/><rect x="305" y="460" width="35" height="35" fill="#b0c3d0" stroke="#fbfaf7"/><rect x="340" y="460" width="35" height="35" fill="#becdd6" stroke="#fbfaf7"/><rect x="375" y="460" width="35" height="35" fill="#b6c7d3" stroke="#fbfaf7"/><rect x="410" y="460" width="35" height="35" fill="#c0ced7" stroke="#fbfaf7"/><rect x="445" y="460" width="35" height="35" fill="#9db5c8" stroke="#fbfaf7"/><rect x="480" y="460" width="35" height="35" fill="#8daac1" stroke="#fbfaf7"/><rect x="515" y="460" width="35" height="35" fill="#2f6697" stroke="#fbfaf7"/><rect x="550" y="460" width="35" height="35" fill="#9ab3c6" stroke="#fbfaf7"/><rect x="585" y="460" width="35" height="35" fill="#a7bccc" stroke="#fbfaf7"/><rect x="620" y="460" width="35" height="35" fill="#b3c5d2" stroke="#fbfaf7"/><rect x="655" y="460" width="35" height="35" fill="#93aec3" stroke="#fbfaf7"/><rect x="690" y="460" width="35" height="35" fill="#abbfce" stroke="#fbfaf7"/><rect x="725" y="460" width="35" height="35" fill="#9fb7c9" stroke="#fbfaf7"/><rect x="760" y="460" width="35" height="35" fill="#a3bacb" stroke="#fbfaf7"/><rect x="795" y="460" width="35" height="35" fill="#9bb4c7" stroke="#fbfaf7"/><rect x="830" y="460" width="35" height="35" fill="#a7bdcc" stroke="#fbfaf7"/><rect x="865" y="460" width="35" height="35" fill="#94aec4" stroke="#fbfaf7"/><rect x="900" y="460" width="35" height="35" fill="#b2c4d1" stroke="#fbfaf7"/><text x="227" y="517.8" text-anchor="end" class="axis">grok/v9m-exp-0805-row17-47p8-api-medium</text><rect x="235" y="495" width="35" height="35" fill="#a7bdcc" stroke="#fbfaf7"/><rect x="270" y="495" width="35" height="35" fill="#bccbd6" stroke="#fbfaf7"/><rect x="305" y="495" width="35" height="35" fill="#82a2bc" stroke="#fbfaf7"/><rect x="340" y="495" width="35" height="35" fill="#a6bbcc" stroke="#fbfaf7"/><rect x="375" y="495" width="35" height="35" fill="#a8bdcd" stroke="#fbfaf7"/><rect x="410" y="495" width="35" height="35" fill="#9cb4c7" stroke="#fbfaf7"/><rect x="445" y="495" width="35" height="35" fill="#aec1cf" stroke="#fbfaf7"/><rect x="480" y="495" width="35" height="35" fill="#7a9cb8" stroke="#fbfaf7"/><rect x="515" y="495" width="35" height="35" fill="#9ab3c6" stroke="#fbfaf7"/><rect x="550" y="495" width="35" height="35" fill="#2f6697" stroke="#fbfaf7"/><rect x="585" y="495" width="35" height="35" fill="#97b1c5" stroke="#fbfaf7"/><rect x="620" y="495" width="35" height="35" fill="#7e9fba" stroke="#fbfaf7"/><rect x="655" y="495" width="35" height="35" fill="#9bb4c7" stroke="#fbfaf7"/><rect x="690" y="495" width="35" height="35" fill="#83a2bc" stroke="#fbfaf7"/><rect x="725" y="495" width="35" height="35" fill="#88a6be" stroke="#fbfaf7"/><rect x="760" y="495" width="35" height="35" fill="#94afc4" stroke="#fbfaf7"/><rect x="795" y="495" width="35" height="35" fill="#8ca9c0" stroke="#fbfaf7"/><rect x="830" y="495" width="35" height="35" fill="#8daac1" stroke="#fbfaf7"/><rect x="865" y="495" width="35" height="35" fill="#85a4bd" stroke="#fbfaf7"/><rect x="900" y="495" width="35" height="35" fill="#99b2c6" stroke="#fbfaf7"/><text x="227" y="552.8" text-anchor="end" class="axis">meta/super_nova_dist</text><rect x="235" y="530" width="35" height="35" fill="#bfcdd7" stroke="#fbfaf7"/><rect x="270" y="530" width="35" height="35" fill="#cdd8dd" stroke="#fbfaf7"/><rect x="305" y="530" width="35" height="35" fill="#a9bdcd" stroke="#fbfaf7"/><rect x="340" y="530" width="35" height="35" fill="#b7c8d3" stroke="#fbfaf7"/><rect x="375" y="530" width="35" height="35" fill="#c5d2da" stroke="#fbfaf7"/><rect x="410" y="530" width="35" height="35" fill="#a1b8c9" stroke="#fbfaf7"/><rect x="445" y="530" width="35" height="35" fill="#cbd6dc" stroke="#fbfaf7"/><rect x="480" y="530" width="35" height="35" fill="#7d9eba" stroke="#fbfaf7"/><rect x="515" y="530" width="35" height="35" fill="#a7bccc" stroke="#fbfaf7"/><rect x="550" y="530" width="35" height="35" fill="#97b1c5" stroke="#fbfaf7"/><rect x="585" y="530" width="35" height="35" fill="#2f6697" stroke="#fbfaf7"/><rect x="620" y="530" width="35" height="35" fill="#6990b1" stroke="#fbfaf7"/><rect x="655" y="530" width="35" height="35" fill="#bbcad5" stroke="#fbfaf7"/><rect x="690" y="530" width="35" height="35" fill="#a8bdcc" stroke="#fbfaf7"/><rect x="725" y="530" width="35" height="35" fill="#85a4bd" stroke="#fbfaf7"/><rect x="760" y="530" width="35" height="35" fill="#acc0ce" stroke="#fbfaf7"/><rect x="795" y="530" width="35" height="35" fill="#8aa7bf" stroke="#fbfaf7"/><rect x="830" y="530" width="35" height="35" fill="#618aad" stroke="#fbfaf7"/><rect x="865" y="530" width="35" height="35" fill="#99b2c6" stroke="#fbfaf7"/><rect x="900" y="530" width="35" height="35" fill="#a1b8c9" stroke="#fbfaf7"/><text x="227" y="587.8" text-anchor="end" class="axis">anthropic/claude-sonnet-5-high</text><rect x="235" y="565" width="35" height="35" fill="#94afc4" stroke="#fbfaf7"/><rect x="270" y="565" width="35" height="35" fill="#bfcdd7" stroke="#fbfaf7"/><rect x="305" y="565" width="35" height="35" fill="#a9bdcd" stroke="#fbfaf7"/><rect x="340" y="565" width="35" height="35" fill="#a9becd" stroke="#fbfaf7"/><rect x="375" y="565" width="35" height="35" fill="#9fb7c9" stroke="#fbfaf7"/><rect x="410" y="565" width="35" height="35" fill="#a5bbcb" stroke="#fbfaf7"/><rect x="445" y="565" width="35" height="35" fill="#d7dfe2" stroke="#fbfaf7"/><rect x="480" y="565" width="35" height="35" fill="#7d9eba" stroke="#fbfaf7"/><rect x="515" y="565" width="35" height="35" fill="#b3c5d2" stroke="#fbfaf7"/><rect x="550" y="565" width="35" height="35" fill="#7e9fba" stroke="#fbfaf7"/><rect x="585" y="565" width="35" height="35" fill="#6990b1" stroke="#fbfaf7"/><rect x="620" y="565" width="35" height="35" fill="#2f6697" stroke="#fbfaf7"/><rect x="655" y="565" width="35" height="35" fill="#a3bacb" stroke="#fbfaf7"/><rect x="690" y="565" width="35" height="35" fill="#a8bdcc" stroke="#fbfaf7"/><rect x="725" y="565" width="35" height="35" fill="#91acc2" stroke="#fbfaf7"/><rect x="760" y="565" width="35" height="35" fill="#a1b8c9" stroke="#fbfaf7"/><rect x="795" y="565" width="35" height="35" fill="#a0b7c9" stroke="#fbfaf7"/><rect x="830" y="565" width="35" height="35" fill="#789ab7" stroke="#fbfaf7"/><rect x="865" y="565" width="35" height="35" fill="#83a2bc" stroke="#fbfaf7"/><rect x="900" y="565" width="35" height="35" fill="#96b0c5" stroke="#fbfaf7"/><text x="227" y="622.8" text-anchor="end" class="axis">openai/nova-alpha</text><rect x="235" y="600" width="35" height="35" fill="#b9c9d4" stroke="#fbfaf7"/><rect x="270" y="600" width="35" height="35" fill="#d4dde0" stroke="#fbfaf7"/><rect x="305" y="600" width="35" height="35" fill="#b1c4d1" stroke="#fbfaf7"/><rect x="340" y="600" width="35" height="35" fill="#a4bacb" stroke="#fbfaf7"/><rect x="375" y="600" width="35" height="35" fill="#a7bdcc" stroke="#fbfaf7"/><rect x="410" y="600" width="35" height="35" fill="#b4c6d2" stroke="#fbfaf7"/><rect x="445" y="600" width="35" height="35" fill="#adc1cf" stroke="#fbfaf7"/><rect x="480" y="600" width="35" height="35" fill="#a5bbcb" stroke="#fbfaf7"/><rect x="515" y="600" width="35" height="35" fill="#93aec3" stroke="#fbfaf7"/><rect x="550" y="600" width="35" height="35" fill="#9bb4c7" stroke="#fbfaf7"/><rect x="585" y="600" width="35" height="35" fill="#bbcad5" stroke="#fbfaf7"/><rect x="620" y="600" width="35" height="35" fill="#a3bacb" stroke="#fbfaf7"/><rect x="655" y="600" width="35" height="35" fill="#2f6697" stroke="#fbfaf7"/><rect x="690" y="600" width="35" height="35" fill="#b7c7d3" stroke="#fbfaf7"/><rect x="725" y="600" width="35" height="35" fill="#a0b8c9" stroke="#fbfaf7"/><rect x="760" y="600" width="35" height="35" fill="#b0c3d0" stroke="#fbfaf7"/><rect x="795" y="600" width="35" height="35" fill="#b3c5d2" stroke="#fbfaf7"/><rect x="830" y="600" width="35" height="35" fill="#b0c3d0" stroke="#fbfaf7"/><rect x="865" y="600" width="35" height="35" fill="#80a0bb" stroke="#fbfaf7"/><rect x="900" y="600" width="35" height="35" fill="#becdd6" stroke="#fbfaf7"/><text x="227" y="657.8" text-anchor="end" class="axis">grok/v9-stickynote</text><rect x="235" y="635" width="35" height="35" fill="#d4dde0" stroke="#fbfaf7"/><rect x="270" y="635" width="35" height="35" fill="#d4dde0" stroke="#fbfaf7"/><rect x="305" y="635" width="35" height="35" fill="#ccd7dc" stroke="#fbfaf7"/><rect x="340" y="635" width="35" height="35" fill="#b2c4d1" stroke="#fbfaf7"/><rect x="375" y="635" width="35" height="35" fill="#cdd7dd" stroke="#fbfaf7"/><rect x="410" y="635" width="35" height="35" fill="#9bb4c7" stroke="#fbfaf7"/><rect x="445" y="635" width="35" height="35" fill="#adc1cf" stroke="#fbfaf7"/><rect x="480" y="635" width="35" height="35" fill="#7599b6" stroke="#fbfaf7"/><rect x="515" y="635" width="35" height="35" fill="#abbfce" stroke="#fbfaf7"/><rect x="550" y="635" width="35" height="35" fill="#83a2bc" stroke="#fbfaf7"/><rect x="585" y="635" width="35" height="35" fill="#a8bdcc" stroke="#fbfaf7"/><rect x="620" y="635" width="35" height="35" fill="#a8bdcc" stroke="#fbfaf7"/><rect x="655" y="635" width="35" height="35" fill="#b7c7d3" stroke="#fbfaf7"/><rect x="690" y="635" width="35" height="35" fill="#2f6697" stroke="#fbfaf7"/><rect x="725" y="635" width="35" height="35" fill="#acc0ce" stroke="#fbfaf7"/><rect x="760" y="635" width="35" height="35" fill="#99b3c6" stroke="#fbfaf7"/><rect x="795" y="635" width="35" height="35" fill="#9db5c8" stroke="#fbfaf7"/><rect x="830" y="635" width="35" height="35" fill="#a9becd" stroke="#fbfaf7"/><rect x="865" y="635" width="35" height="35" fill="#96b0c5" stroke="#fbfaf7"/><rect x="900" y="635" width="35" height="35" fill="#93aec3" stroke="#fbfaf7"/><text x="227" y="692.8" text-anchor="end" class="axis">meta/glassy_lagoon</text><rect x="235" y="670" width="35" height="35" fill="#bacad4" stroke="#fbfaf7"/><rect x="270" y="670" width="35" height="35" fill="#e2e7e7" stroke="#fbfaf7"/><rect x="305" y="670" width="35" height="35" fill="#a4bacb" stroke="#fbfaf7"/><rect x="340" y="670" width="35" height="35" fill="#a5bbcb" stroke="#fbfaf7"/><rect x="375" y="670" width="35" height="35" fill="#9bb4c7" stroke="#fbfaf7"/><rect x="410" y="670" width="35" height="35" fill="#9fb7c9" stroke="#fbfaf7"/><rect x="445" y="670" width="35" height="35" fill="#bacad4" stroke="#fbfaf7"/><rect x="480" y="670" width="35" height="35" fill="#7699b6" stroke="#fbfaf7"/><rect x="515" y="670" width="35" height="35" fill="#9fb7c9" stroke="#fbfaf7"/><rect x="550" y="670" width="35" height="35" fill="#88a6be" stroke="#fbfaf7"/><rect x="585" y="670" width="35" height="35" fill="#85a4bd" stroke="#fbfaf7"/><rect x="620" y="670" width="35" height="35" fill="#91acc2" stroke="#fbfaf7"/><rect x="655" y="670" width="35" height="35" fill="#a0b8c9" stroke="#fbfaf7"/><rect x="690" y="670" width="35" height="35" fill="#acc0ce" stroke="#fbfaf7"/><rect x="725" y="670" width="35" height="35" fill="#2f6697" stroke="#fbfaf7"/><rect x="760" y="670" width="35" height="35" fill="#a5bbcb" stroke="#fbfaf7"/><rect x="795" y="670" width="35" height="35" fill="#87a6be" stroke="#fbfaf7"/><rect x="830" y="670" width="35" height="35" fill="#6d93b3" stroke="#fbfaf7"/><rect x="865" y="670" width="35" height="35" fill="#8ca9c0" stroke="#fbfaf7"/><rect x="900" y="670" width="35" height="35" fill="#9fb6c8" stroke="#fbfaf7"/><text x="227" y="727.8" text-anchor="end" class="axis">openai/firefly-alpha-high</text><rect x="235" y="705" width="35" height="35" fill="#cad5dc" stroke="#fbfaf7"/><rect x="270" y="705" width="35" height="35" fill="#d7dfe2" stroke="#fbfaf7"/><rect x="305" y="705" width="35" height="35" fill="#c2d0d8" stroke="#fbfaf7"/><rect x="340" y="705" width="35" height="35" fill="#b5c7d3" stroke="#fbfaf7"/><rect x="375" y="705" width="35" height="35" fill="#ccd7dd" stroke="#fbfaf7"/><rect x="410" y="705" width="35" height="35" fill="#a0b7c9" stroke="#fbfaf7"/><rect x="445" y="705" width="35" height="35" fill="#b1c4d1" stroke="#fbfaf7"/><rect x="480" y="705" width="35" height="35" fill="#9eb5c8" stroke="#fbfaf7"/><rect x="515" y="705" width="35" height="35" fill="#a3bacb" stroke="#fbfaf7"/><rect x="550" y="705" width="35" height="35" fill="#94afc4" stroke="#fbfaf7"/><rect x="585" y="705" width="35" height="35" fill="#acc0ce" stroke="#fbfaf7"/><rect x="620" y="705" width="35" height="35" fill="#a1b8c9" stroke="#fbfaf7"/><rect x="655" y="705" width="35" height="35" fill="#b0c3d0" stroke="#fbfaf7"/><rect x="690" y="705" width="35" height="35" fill="#99b3c6" stroke="#fbfaf7"/><rect x="725" y="705" width="35" height="35" fill="#a5bbcb" stroke="#fbfaf7"/><rect x="760" y="705" width="35" height="35" fill="#2f6697" stroke="#fbfaf7"/><rect x="795" y="705" width="35" height="35" fill="#8ca9c0" stroke="#fbfaf7"/><rect x="830" y="705" width="35" height="35" fill="#a3bacb" stroke="#fbfaf7"/><rect x="865" y="705" width="35" height="35" fill="#9bb4c7" stroke="#fbfaf7"/><rect x="900" y="705" width="35" height="35" fill="#8eaac1" stroke="#fbfaf7"/><text x="227" y="762.8" text-anchor="end" class="axis">zai/glm-5.2-max-tokens-48k-top-p-1</text><rect x="235" y="740" width="35" height="35" fill="#a5bbcb" stroke="#fbfaf7"/><rect x="270" y="740" width="35" height="35" fill="#ccd7dd" stroke="#fbfaf7"/><rect x="305" y="740" width="35" height="35" fill="#9eb6c8" stroke="#fbfaf7"/><rect x="340" y="740" width="35" height="35" fill="#b8c9d4" stroke="#fbfaf7"/><rect x="375" y="740" width="35" height="35" fill="#aec2d0" stroke="#fbfaf7"/><rect x="410" y="740" width="35" height="35" fill="#bbcbd5" stroke="#fbfaf7"/><rect x="445" y="740" width="35" height="35" fill="#b4c6d2" stroke="#fbfaf7"/><rect x="480" y="740" width="35" height="35" fill="#95afc4" stroke="#fbfaf7"/><rect x="515" y="740" width="35" height="35" fill="#9bb4c7" stroke="#fbfaf7"/><rect x="550" y="740" width="35" height="35" fill="#8ca9c0" stroke="#fbfaf7"/><rect x="585" y="740" width="35" height="35" fill="#8aa7bf" stroke="#fbfaf7"/><rect x="620" y="740" width="35" height="35" fill="#a0b7c9" stroke="#fbfaf7"/><rect x="655" y="740" width="35" height="35" fill="#b3c5d2" stroke="#fbfaf7"/><rect x="690" y="740" width="35" height="35" fill="#9db5c8" stroke="#fbfaf7"/><rect x="725" y="740" width="35" height="35" fill="#87a6be" stroke="#fbfaf7"/><rect x="760" y="740" width="35" height="35" fill="#8ca9c0" stroke="#fbfaf7"/><rect x="795" y="740" width="35" height="35" fill="#2f6697" stroke="#fbfaf7"/><rect x="830" y="740" width="35" height="35" fill="#8da9c0" stroke="#fbfaf7"/><rect x="865" y="740" width="35" height="35" fill="#7498b6" stroke="#fbfaf7"/><rect x="900" y="740" width="35" height="35" fill="#88a6be" stroke="#fbfaf7"/><text x="227" y="797.8" text-anchor="end" class="axis">meta/super_nova_vals</text><rect x="235" y="775" width="35" height="35" fill="#a6bbcc" stroke="#fbfaf7"/><rect x="270" y="775" width="35" height="35" fill="#c2d0d8" stroke="#fbfaf7"/><rect x="305" y="775" width="35" height="35" fill="#91acc2" stroke="#fbfaf7"/><rect x="340" y="775" width="35" height="35" fill="#bbcad5" stroke="#fbfaf7"/><rect x="375" y="775" width="35" height="35" fill="#9eb6c8" stroke="#fbfaf7"/><rect x="410" y="775" width="35" height="35" fill="#7b9db9" stroke="#fbfaf7"/><rect x="445" y="775" width="35" height="35" fill="#c4d1d9" stroke="#fbfaf7"/><rect x="480" y="775" width="35" height="35" fill="#7e9fba" stroke="#fbfaf7"/><rect x="515" y="775" width="35" height="35" fill="#a7bdcc" stroke="#fbfaf7"/><rect x="550" y="775" width="35" height="35" fill="#8daac1" stroke="#fbfaf7"/><rect x="585" y="775" width="35" height="35" fill="#618aad" stroke="#fbfaf7"/><rect x="620" y="775" width="35" height="35" fill="#789ab7" stroke="#fbfaf7"/><rect x="655" y="775" width="35" height="35" fill="#b0c3d0" stroke="#fbfaf7"/><rect x="690" y="775" width="35" height="35" fill="#a9becd" stroke="#fbfaf7"/><rect x="725" y="775" width="35" height="35" fill="#6d93b3" stroke="#fbfaf7"/><rect x="760" y="775" width="35" height="35" fill="#a3bacb" stroke="#fbfaf7"/><rect x="795" y="775" width="35" height="35" fill="#8da9c0" stroke="#fbfaf7"/><rect x="830" y="775" width="35" height="35" fill="#2f6697" stroke="#fbfaf7"/><rect x="865" y="775" width="35" height="35" fill="#9cb4c7" stroke="#fbfaf7"/><rect x="900" y="775" width="35" height="35" fill="#9ab3c6" stroke="#fbfaf7"/><text x="227" y="832.8" text-anchor="end" class="axis">google/gemini-3.1-pro-preview</text><rect x="235" y="810" width="35" height="35" fill="#9ab3c7" stroke="#fbfaf7"/><rect x="270" y="810" width="35" height="35" fill="#c2d0d8" stroke="#fbfaf7"/><rect x="305" y="810" width="35" height="35" fill="#a1b8c9" stroke="#fbfaf7"/><rect x="340" y="810" width="35" height="35" fill="#94afc4" stroke="#fbfaf7"/><rect x="375" y="810" width="35" height="35" fill="#a6bbcc" stroke="#fbfaf7"/><rect x="410" y="810" width="35" height="35" fill="#a6bccc" stroke="#fbfaf7"/><rect x="445" y="810" width="35" height="35" fill="#acc0ce" stroke="#fbfaf7"/><rect x="480" y="810" width="35" height="35" fill="#82a2bc" stroke="#fbfaf7"/><rect x="515" y="810" width="35" height="35" fill="#94aec4" stroke="#fbfaf7"/><rect x="550" y="810" width="35" height="35" fill="#85a4bd" stroke="#fbfaf7"/><rect x="585" y="810" width="35" height="35" fill="#99b2c6" stroke="#fbfaf7"/><rect x="620" y="810" width="35" height="35" fill="#83a2bc" stroke="#fbfaf7"/><rect x="655" y="810" width="35" height="35" fill="#80a0bb" stroke="#fbfaf7"/><rect x="690" y="810" width="35" height="35" fill="#96b0c5" stroke="#fbfaf7"/><rect x="725" y="810" width="35" height="35" fill="#8ca9c0" stroke="#fbfaf7"/><rect x="760" y="810" width="35" height="35" fill="#9bb4c7" stroke="#fbfaf7"/><rect x="795" y="810" width="35" height="35" fill="#7498b6" stroke="#fbfaf7"/><rect x="830" y="810" width="35" height="35" fill="#9cb4c7" stroke="#fbfaf7"/><rect x="865" y="810" width="35" height="35" fill="#2f6697" stroke="#fbfaf7"/><rect x="900" y="810" width="35" height="35" fill="#a1b8ca" stroke="#fbfaf7"/><text x="227" y="867.8" text-anchor="end" class="axis">anthropic/claude-opus-4-7</text><rect x="235" y="845" width="35" height="35" fill="#c7d3da" stroke="#fbfaf7"/><rect x="270" y="845" width="35" height="35" fill="#d4dde0" stroke="#fbfaf7"/><rect x="305" y="845" width="35" height="35" fill="#c0ced7" stroke="#fbfaf7"/><rect x="340" y="845" width="35" height="35" fill="#a7bdcc" stroke="#fbfaf7"/><rect x="375" y="845" width="35" height="35" fill="#acc0cf" stroke="#fbfaf7"/><rect x="410" y="845" width="35" height="35" fill="#adc1cf" stroke="#fbfaf7"/><rect x="445" y="845" width="35" height="35" fill="#b2c4d1" stroke="#fbfaf7"/><rect x="480" y="845" width="35" height="35" fill="#95afc4" stroke="#fbfaf7"/><rect x="515" y="845" width="35" height="35" fill="#b2c4d1" stroke="#fbfaf7"/><rect x="550" y="845" width="35" height="35" fill="#99b2c6" stroke="#fbfaf7"/><rect x="585" y="845" width="35" height="35" fill="#a1b8c9" stroke="#fbfaf7"/><rect x="620" y="845" width="35" height="35" fill="#96b0c5" stroke="#fbfaf7"/><rect x="655" y="845" width="35" height="35" fill="#becdd6" stroke="#fbfaf7"/><rect x="690" y="845" width="35" height="35" fill="#93aec3" stroke="#fbfaf7"/><rect x="725" y="845" width="35" height="35" fill="#9fb6c8" stroke="#fbfaf7"/><rect x="760" y="845" width="35" height="35" fill="#8eaac1" stroke="#fbfaf7"/><rect x="795" y="845" width="35" height="35" fill="#88a6be" stroke="#fbfaf7"/><rect x="830" y="845" width="35" height="35" fill="#9ab3c6" stroke="#fbfaf7"/><rect x="865" y="845" width="35" height="35" fill="#a1b8ca" stroke="#fbfaf7"/><rect x="900" y="845" width="35" height="35" fill="#2f6697" stroke="#fbfaf7"/></svg>