<svg xmlns="http://www.w3.org/2000/svg" width="940" height="640" viewBox="0 0 940 640" role="img"><rect width="100%" height="100%" fill="#fbfaf7"/><style>text{font-family:-apple-system,BlinkMacSystemFont,Segoe UI,Arial,sans-serif;fill:#202124}.title{font-size:20px;font-weight:700}.subtitle{font-size:12px;fill:#6b7280}.axis{font-size:11px;fill:#6b7280}.label{font-size:11px}.value{font-size:11px;font-weight:600}</style><text x="90" y="30" class="title">Observed run variation often differs from the binomial reference</text><text x="90" y="51" class="subtitle">Comparable metadata cells with ≥3 runs; point size increases with repetitions</text><line x1="90.0" y1="85" x2="90.0" y2="560" stroke="#ddd9d0"/><line x1="90" y1="560.0" x2="890" y2="560.0" stroke="#ddd9d0"/><text x="90.0" y="582" text-anchor="middle" class="axis">0.00</text><text x="80" y="564.0" text-anchor="end" class="axis">0.00</text><line x1="250.0" y1="85" x2="250.0" y2="560" stroke="#ddd9d0"/><line x1="90" y1="465.0" x2="890" y2="465.0" stroke="#ddd9d0"/><text x="250.0" y="582" text-anchor="middle" class="axis">0.12</text><text x="80" y="469.0" text-anchor="end" class="axis">0.12</text><line x1="410.0" y1="85" x2="410.0" y2="560" stroke="#ddd9d0"/><line x1="90" y1="370.0" x2="890" y2="370.0" stroke="#ddd9d0"/><text x="410.0" y="582" text-anchor="middle" class="axis">0.24</text><text x="80" y="374.0" text-anchor="end" class="axis">0.24</text><line x1="570.0" y1="85" x2="570.0" y2="560" stroke="#ddd9d0"/><line x1="90" y1="275.0" x2="890" y2="275.0" stroke="#ddd9d0"/><text x="570.0" y="582" text-anchor="middle" class="axis">0.36</text><text x="80" y="279.0" text-anchor="end" class="axis">0.36</text><line x1="730.0" y1="85" x2="730.0" y2="560" stroke="#ddd9d0"/><line x1="90" y1="180.0" x2="890" y2="180.0" stroke="#ddd9d0"/><text x="730.0" y="582" text-anchor="middle" class="axis">0.48</text><text x="80" y="184.0" text-anchor="end" class="axis">0.48</text><line x1="890.0" y1="85" x2="890.0" y2="560" stroke="#ddd9d0"/><line x1="90" y1="85.0" x2="890" y2="85.0" stroke="#ddd9d0"/><text x="890.0" y="582" text-anchor="middle" class="axis">0.61</text><text x="80" y="89.0" text-anchor="end" class="axis">0.61</text><line x1="90.0" y1="560.0" x2="890.0" y2="85.0" stroke="#6b7280" stroke-dasharray="6 5"/><circle cx="384.4" cy="469.5" r="4.2" fill="#3568a9" fill-opacity="0.72" stroke="white" stroke-width="0.7"/><circle cx="290.6" cy="469.5" r="4.2" fill="#3568a9" fill-opacity="0.72" stroke="white" stroke-width="0.7"/><circle cx="368.2" cy="379.0" r="4.2" fill="#3568a9" fill-opacity="0.72" stroke="white" stroke-width="0.7"/><circle cx="351.0" cy="379.0" r="4.2" fill="#3568a9" fill-opacity="0.72" stroke="white" stroke-width="0.7"/><circle cx="351.0" cy="469.5" r="4.2" fill="#3568a9" fill-opacity="0.72" stroke="white" stroke-width="0.7"/><circle cx="368.2" cy="379.0" r="4.2" fill="#3568a9" fill-opacity="0.72" stroke="white" stroke-width="0.7"/><circle cx="116.8" cy="541.2" r="5.3" fill="#d9783a" fill-opacity="0.72" stroke="white" stroke-width="0.7"/><circle cx="168.3" cy="433.1" r="5.3" fill="#d9783a" fill-opacity="0.72" stroke="white" stroke-width="0.7"/><circle cx="175.2" cy="366.4" r="4.9" fill="#d9783a" fill-opacity="0.72" stroke="white" stroke-width="0.7"/><circle cx="173.9" cy="309.1" r="4.9" fill="#d9783a" fill-opacity="0.72" stroke="white" stroke-width="0.7"/><circle cx="168.2" cy="471.9" r="4.9" fill="#d9783a" fill-opacity="0.72" stroke="white" stroke-width="0.7"/><circle cx="109.5" cy="550.0" r="4.5" fill="#d9783a" fill-opacity="0.72" stroke="white" stroke-width="0.7"/><circle cx="172.6" cy="539.3" r="4.7" fill="#d9783a" fill-opacity="0.72" stroke="white" stroke-width="0.7"/><circle cx="171.8" cy="542.0" r="4.7" fill="#d9783a" fill-opacity="0.72" stroke="white" stroke-width="0.7"/><circle cx="167.7" cy="512.5" r="4.7" fill="#d9783a" fill-opacity="0.72" stroke="white" stroke-width="0.7"/><circle cx="90.0" cy="560.0" r="4.7" fill="#d9783a" fill-opacity="0.72" stroke="white" stroke-width="0.7"/><circle cx="157.7" cy="505.8" r="4.7" fill="#d9783a" fill-opacity="0.72" stroke="white" stroke-width="0.7"/><circle cx="156.4" cy="550.1" r="4.5" fill="#d9783a" fill-opacity="0.72" stroke="white" stroke-width="0.7"/><circle cx="163.8" cy="482.6" r="4.5" fill="#d9783a" fill-opacity="0.72" stroke="white" stroke-width="0.7"/><circle cx="173.5" cy="523.8" r="4.5" fill="#d9783a" fill-opacity="0.72" stroke="white" stroke-width="0.7"/><circle cx="167.2" cy="520.9" r="4.5" fill="#d9783a" fill-opacity="0.72" stroke="white" stroke-width="0.7"/><circle cx="166.1" cy="461.2" r="4.5" fill="#d9783a" fill-opacity="0.72" stroke="white" stroke-width="0.7"/><circle cx="165.9" cy="406.8" r="4.5" fill="#d9783a" fill-opacity="0.72" stroke="white" stroke-width="0.7"/><circle cx="749.8" cy="107.6" r="4.5" fill="#d9783a" fill-opacity="0.72" stroke="white" stroke-width="0.7"/><circle cx="153.2" cy="529.0" r="4.5" fill="#d9783a" fill-opacity="0.72" stroke="white" stroke-width="0.7"/><circle cx="160.7" cy="524.6" r="4.5" fill="#d9783a" fill-opacity="0.72" stroke="white" stroke-width="0.7"/><circle cx="140.1" cy="549.0" r="4.2" fill="#d9783a" fill-opacity="0.72" stroke="white" stroke-width="0.7"/><circle cx="90.0" cy="560.0" r="4.2" fill="#d9783a" fill-opacity="0.72" stroke="white" stroke-width="0.7"/><circle cx="165.2" cy="542.4" r="4.2" fill="#d9783a" fill-opacity="0.72" stroke="white" stroke-width="0.7"/><circle cx="140.6" cy="548.8" r="4.2" fill="#d9783a" fill-opacity="0.72" stroke="white" stroke-width="0.7"/><circle cx="137.0" cy="545.4" r="4.2" fill="#d9783a" fill-opacity="0.72" stroke="white" stroke-width="0.7"/><circle cx="153.9" cy="538.8" r="4.2" fill="#d9783a" fill-opacity="0.72" stroke="white" stroke-width="0.7"/><circle cx="164.8" cy="554.3" r="4.2" fill="#d9783a" fill-opacity="0.72" stroke="white" stroke-width="0.7"/><circle cx="172.1" cy="477.4" r="4.2" fill="#d9783a" fill-opacity="0.72" stroke="white" stroke-width="0.7"/><circle cx="155.9" cy="375.4" r="4.2" fill="#d9783a" fill-opacity="0.72" stroke="white" stroke-width="0.7"/><circle cx="159.5" cy="542.8" r="4.2" fill="#d9783a" fill-opacity="0.72" stroke="white" stroke-width="0.7"/><circle cx="712.1" cy="107.6" r="4.2" fill="#d9783a" fill-opacity="0.72" stroke="white" stroke-width="0.7"/><circle cx="172.9" cy="376.8" r="4.2" fill="#d9783a" fill-opacity="0.72" stroke="white" stroke-width="0.7"/><circle cx="182.7" cy="525.0" r="4.2" fill="#d9783a" fill-opacity="0.72" stroke="white" stroke-width="0.7"/><circle cx="117.7" cy="550.8" r="4.2" fill="#d9783a" fill-opacity="0.72" stroke="white" stroke-width="0.7"/><circle cx="169.2" cy="531.1" r="4.2" fill="#d9783a" fill-opacity="0.72" stroke="white" stroke-width="0.7"/><circle cx="180.5" cy="518.5" r="4.2" fill="#d9783a" fill-opacity="0.72" stroke="white" stroke-width="0.7"/><circle cx="180.8" cy="508.2" r="4.2" fill="#d9783a" fill-opacity="0.72" stroke="white" stroke-width="0.7"/><circle cx="163.1" cy="514.5" r="4.2" fill="#d9783a" fill-opacity="0.72" stroke="white" stroke-width="0.7"/><circle cx="173.3" cy="386.1" r="4.2" fill="#d9783a" fill-opacity="0.72" stroke="white" stroke-width="0.7"/><circle cx="149.0" cy="553.4" r="4.2" fill="#d9783a" fill-opacity="0.72" stroke="white" stroke-width="0.7"/><circle cx="140.6" cy="550.7" r="4.2" fill="#d9783a" fill-opacity="0.72" stroke="white" stroke-width="0.7"/><circle cx="90.0" cy="560.0" r="4.2" fill="#d9783a" fill-opacity="0.72" stroke="white" stroke-width="0.7"/><circle cx="155.8" cy="532.5" r="4.2" fill="#d9783a" fill-opacity="0.72" stroke="white" stroke-width="0.7"/><circle cx="156.3" cy="531.6" r="4.2" fill="#d9783a" fill-opacity="0.72" stroke="white" stroke-width="0.7"/><circle cx="90.0" cy="560.0" r="4.2" fill="#3d8b72" fill-opacity="0.72" stroke="white" stroke-width="0.7"/><circle cx="240.6" cy="522.2" r="5.7" fill="#7656a8" fill-opacity="0.72" stroke="white" stroke-width="0.7"/><circle cx="294.7" cy="434.9" r="4.7" fill="#7656a8" fill-opacity="0.72" stroke="white" stroke-width="0.7"/><circle cx="108.0" cy="551.4" r="4.5" fill="#7656a8" fill-opacity="0.72" stroke="white" stroke-width="0.7"/><circle cx="90.0" cy="560.0" r="4.2" fill="#7656a8" fill-opacity="0.72" stroke="white" stroke-width="0.7"/><circle cx="90.0" cy="560.0" r="4.2" fill="#7656a8" fill-opacity="0.72" stroke="white" stroke-width="0.7"/><circle cx="90.0" cy="560.0" r="4.2" fill="#7656a8" fill-opacity="0.72" stroke="white" stroke-width="0.7"/><circle cx="90.0" cy="560.0" r="4.2" fill="#7656a8" fill-opacity="0.72" stroke="white" stroke-width="0.7"/><circle cx="90.0" cy="560.0" r="4.2" fill="#b84a4a" fill-opacity="0.72" stroke="white" stroke-width="0.7"/><circle cx="90.0" cy="560.0" r="4.2" fill="#b84a4a" fill-opacity="0.72" stroke="white" stroke-width="0.7"/><circle cx="90.0" cy="560.0" r="4.9" fill="#4f8fa8" fill-opacity="0.72" stroke="white" stroke-width="0.7"/><circle cx="226.3" cy="496.0" r="4.7" fill="#4f8fa8" fill-opacity="0.72" stroke="white" stroke-width="0.7"/><circle cx="749.8" cy="107.6" r="4.5" fill="#4f8fa8" fill-opacity="0.72" stroke="white" stroke-width="0.7"/><circle cx="133.4" cy="540.4" r="4.5" fill="#4f8fa8" fill-opacity="0.72" stroke="white" stroke-width="0.7"/><circle cx="90.0" cy="560.0" r="4.5" fill="#4f8fa8" fill-opacity="0.72" stroke="white" stroke-width="0.7"/><circle cx="90.0" cy="560.0" r="4.2" fill="#4f8fa8" fill-opacity="0.72" stroke="white" stroke-width="0.7"/><circle cx="368.2" cy="379.0" r="4.2" fill="#4f8fa8" fill-opacity="0.72" stroke="white" stroke-width="0.7"/><circle cx="90.0" cy="560.0" r="4.2" fill="#4f8fa8" fill-opacity="0.72" stroke="white" stroke-width="0.7"/><circle cx="234.7" cy="448.1" r="4.2" fill="#b08b38" fill-opacity="0.72" stroke="white" stroke-width="0.7"/><circle cx="90.0" cy="560.0" r="4.2" fill="#b08b38" fill-opacity="0.72" stroke="white" stroke-width="0.7"/><circle cx="245.1" cy="389.0" r="4.2" fill="#b08b38" fill-opacity="0.72" stroke="white" stroke-width="0.7"/><circle cx="658.4" cy="252.9" r="4.9" fill="#777777" fill-opacity="0.72" stroke="white" stroke-width="0.7"/><circle cx="749.8" cy="147.0" r="5.7" fill="#3568a9" fill-opacity="0.72" stroke="white" stroke-width="0.7"/><circle cx="218.6" cy="481.6" r="4.5" fill="#3568a9" fill-opacity="0.72" stroke="white" stroke-width="0.7"/><circle cx="272.6" cy="206.0" r="4.5" fill="#3568a9" fill-opacity="0.72" stroke="white" stroke-width="0.7"/><circle cx="90.0" cy="560.0" r="4.2" fill="#3568a9" fill-opacity="0.72" stroke="white" stroke-width="0.7"/><circle cx="90.0" cy="560.0" r="4.2" fill="#3568a9" fill-opacity="0.72" stroke="white" stroke-width="0.7"/><circle cx="90.0" cy="560.0" r="4.2" fill="#3568a9" fill-opacity="0.72" stroke="white" stroke-width="0.7"/><circle cx="90.0" cy="560.0" r="4.2" fill="#3568a9" fill-opacity="0.72" stroke="white" stroke-width="0.7"/><circle cx="736.5" cy="155.4" r="5.7" fill="#d9783a" fill-opacity="0.72" stroke="white" stroke-width="0.7"/><circle cx="154.7" cy="411.0" r="5.8" fill="#d9783a" fill-opacity="0.72" stroke="white" stroke-width="0.7"/><circle cx="90.0" cy="560.0" r="4.7" fill="#d9783a" fill-opacity="0.72" stroke="white" stroke-width="0.7"/><circle cx="120.3" cy="544.7" r="4.7" fill="#d9783a" fill-opacity="0.72" stroke="white" stroke-width="0.7"/><circle cx="90.0" cy="560.0" r="4.2" fill="#d9783a" fill-opacity="0.72" stroke="white" stroke-width="0.7"/><circle cx="150.2" cy="424.8" r="4.5" fill="#d9783a" fill-opacity="0.72" stroke="white" stroke-width="0.7"/><circle cx="90.0" cy="560.0" r="4.2" fill="#d9783a" fill-opacity="0.72" stroke="white" stroke-width="0.7"/><circle cx="90.0" cy="560.0" r="4.2" fill="#d9783a" fill-opacity="0.72" stroke="white" stroke-width="0.7"/><circle cx="90.0" cy="560.0" r="4.2" fill="#3d8b72" fill-opacity="0.72" stroke="white" stroke-width="0.7"/><circle cx="742.5" cy="162.5" r="5.5" fill="#7656a8" fill-opacity="0.72" stroke="white" stroke-width="0.7"/><circle cx="157.1" cy="431.1" r="5.1" fill="#7656a8" fill-opacity="0.72" stroke="white" stroke-width="0.7"/><circle cx="159.9" cy="528.2" r="5.1" fill="#7656a8" fill-opacity="0.72" stroke="white" stroke-width="0.7"/><circle cx="160.7" cy="377.7" r="5.1" fill="#7656a8" fill-opacity="0.72" stroke="white" stroke-width="0.7"/><circle cx="148.8" cy="446.1" r="4.9" fill="#7656a8" fill-opacity="0.72" stroke="white" stroke-width="0.7"/><circle cx="157.6" cy="344.8" r="4.9" fill="#7656a8" fill-opacity="0.72" stroke="white" stroke-width="0.7"/><text x="163.6" y="338.8" class="axis">skillsbench: openai/gpt-5.4-2026-03-05</text><circle cx="318.5" cy="287.2" r="4.7" fill="#7656a8" fill-opacity="0.72" stroke="white" stroke-width="0.7"/><circle cx="556.5" cy="282.8" r="4.7" fill="#7656a8" fill-opacity="0.72" stroke="white" stroke-width="0.7"/><circle cx="736.5" cy="130.8" r="4.7" fill="#7656a8" fill-opacity="0.72" stroke="white" stroke-width="0.7"/><circle cx="152.8" cy="365.1" r="4.7" fill="#7656a8" fill-opacity="0.72" stroke="white" stroke-width="0.7"/><circle cx="145.9" cy="420.7" r="4.7" fill="#7656a8" fill-opacity="0.72" stroke="white" stroke-width="0.7"/><circle cx="159.6" cy="490.6" r="4.5" fill="#7656a8" fill-opacity="0.72" stroke="white" stroke-width="0.7"/><circle cx="159.7" cy="551.1" r="4.5" fill="#7656a8" fill-opacity="0.72" stroke="white" stroke-width="0.7"/><circle cx="160.5" cy="540.4" r="4.5" fill="#7656a8" fill-opacity="0.72" stroke="white" stroke-width="0.7"/><circle cx="90.0" cy="560.0" r="4.5" fill="#7656a8" fill-opacity="0.72" stroke="white" stroke-width="0.7"/><circle cx="160.6" cy="481.6" r="4.5" fill="#7656a8" fill-opacity="0.72" stroke="white" stroke-width="0.7"/><circle cx="158.2" cy="367.7" r="4.5" fill="#7656a8" fill-opacity="0.72" stroke="white" stroke-width="0.7"/><circle cx="158.5" cy="364.5" r="4.5" fill="#7656a8" fill-opacity="0.72" stroke="white" stroke-width="0.7"/><circle cx="160.5" cy="527.9" r="4.2" fill="#7656a8" fill-opacity="0.72" stroke="white" stroke-width="0.7"/><circle cx="155.5" cy="550.2" r="4.2" fill="#7656a8" fill-opacity="0.72" stroke="white" stroke-width="0.7"/><circle cx="155.0" cy="539.1" r="4.2" fill="#7656a8" fill-opacity="0.72" stroke="white" stroke-width="0.7"/><circle cx="159.8" cy="533.7" r="4.2" fill="#7656a8" fill-opacity="0.72" stroke="white" stroke-width="0.7"/><circle cx="144.6" cy="551.3" r="4.2" fill="#7656a8" fill-opacity="0.72" stroke="white" stroke-width="0.7"/><circle cx="153.5" cy="543.7" r="4.2" fill="#7656a8" fill-opacity="0.72" stroke="white" stroke-width="0.7"/><circle cx="159.2" cy="527.8" r="4.2" fill="#7656a8" fill-opacity="0.72" stroke="white" stroke-width="0.7"/><circle cx="159.5" cy="524.8" r="4.2" fill="#7656a8" fill-opacity="0.72" stroke="white" stroke-width="0.7"/><circle cx="160.2" cy="550.2" r="4.2" fill="#7656a8" fill-opacity="0.72" stroke="white" stroke-width="0.7"/><circle cx="160.7" cy="526.2" r="4.2" fill="#7656a8" fill-opacity="0.72" stroke="white" stroke-width="0.7"/><circle cx="153.4" cy="535.7" r="4.2" fill="#7656a8" fill-opacity="0.72" stroke="white" stroke-width="0.7"/><circle cx="158.8" cy="537.2" r="4.2" fill="#7656a8" fill-opacity="0.72" stroke="white" stroke-width="0.7"/><circle cx="160.7" cy="538.0" r="4.2" fill="#7656a8" fill-opacity="0.72" stroke="white" stroke-width="0.7"/><circle cx="160.7" cy="548.4" r="4.2" fill="#7656a8" fill-opacity="0.72" stroke="white" stroke-width="0.7"/><circle cx="153.0" cy="548.9" r="4.2" fill="#7656a8" fill-opacity="0.72" stroke="white" stroke-width="0.7"/><circle cx="90.0" cy="560.0" r="4.2" fill="#7656a8" fill-opacity="0.72" stroke="white" stroke-width="0.7"/><circle cx="90.0" cy="560.0" r="4.2" fill="#7656a8" fill-opacity="0.72" stroke="white" stroke-width="0.7"/><circle cx="153.2" cy="537.3" r="4.2" fill="#7656a8" fill-opacity="0.72" stroke="white" stroke-width="0.7"/><circle cx="160.7" cy="550.4" r="4.2" fill="#7656a8" fill-opacity="0.72" stroke="white" stroke-width="0.7"/><circle cx="158.5" cy="519.9" r="4.2" fill="#7656a8" fill-opacity="0.72" stroke="white" stroke-width="0.7"/><circle cx="160.7" cy="548.9" r="4.2" fill="#7656a8" fill-opacity="0.72" stroke="white" stroke-width="0.7"/><circle cx="159.5" cy="546.3" r="4.2" fill="#7656a8" fill-opacity="0.72" stroke="white" stroke-width="0.7"/><circle cx="145.8" cy="551.0" r="4.2" fill="#7656a8" fill-opacity="0.72" stroke="white" stroke-width="0.7"/><circle cx="256.9" cy="424.3" r="4.2" fill="#7656a8" fill-opacity="0.72" stroke="white" stroke-width="0.7"/><circle cx="270.7" cy="456.3" r="4.2" fill="#7656a8" fill-opacity="0.72" stroke="white" stroke-width="0.7"/><circle cx="157.0" cy="549.7" r="4.2" fill="#7656a8" fill-opacity="0.72" stroke="white" stroke-width="0.7"/><circle cx="160.7" cy="541.3" r="4.2" fill="#7656a8" fill-opacity="0.72" stroke="white" stroke-width="0.7"/><circle cx="159.0" cy="512.8" r="4.2" fill="#7656a8" fill-opacity="0.72" stroke="white" stroke-width="0.7"/><circle cx="160.4" cy="551.0" r="4.2" fill="#7656a8" fill-opacity="0.72" stroke="white" stroke-width="0.7"/><circle cx="160.7" cy="550.7" r="4.2" fill="#7656a8" fill-opacity="0.72" stroke="white" stroke-width="0.7"/><circle cx="155.1" cy="535.2" r="4.2" fill="#7656a8" fill-opacity="0.72" stroke="white" stroke-width="0.7"/><circle cx="159.5" cy="503.2" r="4.2" fill="#7656a8" fill-opacity="0.72" stroke="white" stroke-width="0.7"/><circle cx="160.5" cy="538.8" r="4.2" fill="#7656a8" fill-opacity="0.72" stroke="white" stroke-width="0.7"/><circle cx="159.5" cy="547.8" r="4.2" fill="#7656a8" fill-opacity="0.72" stroke="white" stroke-width="0.7"/><circle cx="160.6" cy="542.5" r="4.2" fill="#7656a8" fill-opacity="0.72" stroke="white" stroke-width="0.7"/><circle cx="152.1" cy="538.3" r="4.2" fill="#7656a8" fill-opacity="0.72" stroke="white" stroke-width="0.7"/><circle cx="159.2" cy="546.6" r="4.2" fill="#7656a8" fill-opacity="0.72" stroke="white" stroke-width="0.7"/><circle cx="160.4" cy="541.4" r="4.2" fill="#7656a8" fill-opacity="0.72" stroke="white" stroke-width="0.7"/><circle cx="160.5" cy="549.2" r="4.2" fill="#7656a8" fill-opacity="0.72" stroke="white" stroke-width="0.7"/><circle cx="160.1" cy="540.6" r="4.2" fill="#7656a8" fill-opacity="0.72" stroke="white" stroke-width="0.7"/><circle cx="159.1" cy="542.1" r="4.2" fill="#7656a8" fill-opacity="0.72" stroke="white" stroke-width="0.7"/><circle cx="160.3" cy="552.0" r="4.2" fill="#7656a8" fill-opacity="0.72" stroke="white" stroke-width="0.7"/><circle cx="160.3" cy="542.5" r="4.2" fill="#7656a8" fill-opacity="0.72" stroke="white" stroke-width="0.7"/><circle cx="160.5" cy="510.6" r="4.2" fill="#7656a8" fill-opacity="0.72" stroke="white" stroke-width="0.7"/><circle cx="160.4" cy="544.6" r="4.2" fill="#7656a8" fill-opacity="0.72" stroke="white" stroke-width="0.7"/><circle cx="159.4" cy="554.7" r="4.2" fill="#7656a8" fill-opacity="0.72" stroke="white" stroke-width="0.7"/><circle cx="145.0" cy="536.7" r="4.2" fill="#7656a8" fill-opacity="0.72" stroke="white" stroke-width="0.7"/><circle cx="152.1" cy="541.0" r="4.2" fill="#7656a8" fill-opacity="0.72" stroke="white" stroke-width="0.7"/><circle cx="156.8" cy="446.2" r="4.2" fill="#7656a8" fill-opacity="0.72" stroke="white" stroke-width="0.7"/><circle cx="148.5" cy="492.9" r="4.2" fill="#7656a8" fill-opacity="0.72" stroke="white" stroke-width="0.7"/><circle cx="118.4" cy="418.7" r="10.5" fill="#b84a4a" fill-opacity="0.72" stroke="white" stroke-width="0.7"/><circle cx="617.9" cy="235.6" r="6.4" fill="#b84a4a" fill-opacity="0.72" stroke="white" stroke-width="0.7"/><circle cx="90.0" cy="560.0" r="7.4" fill="#b84a4a" fill-opacity="0.72" stroke="white" stroke-width="0.7"/><circle cx="728.9" cy="154.5" r="5.3" fill="#b84a4a" fill-opacity="0.72" stroke="white" stroke-width="0.7"/><circle cx="538.6" cy="284.3" r="6.4" fill="#b84a4a" fill-opacity="0.72" stroke="white" stroke-width="0.7"/><circle cx="617.9" cy="229.6" r="5.7" fill="#b84a4a" fill-opacity="0.72" stroke="white" stroke-width="0.7"/><circle cx="373.3" cy="493.9" r="5.7" fill="#b84a4a" fill-opacity="0.72" stroke="white" stroke-width="0.7"/><circle cx="556.6" cy="560.0" r="5.3" fill="#b84a4a" fill-opacity="0.72" stroke="white" stroke-width="0.7"/><circle cx="119.3" cy="312.2" r="4.7" fill="#b84a4a" fill-opacity="0.72" stroke="white" stroke-width="0.7"/><circle cx="90.0" cy="560.0" r="4.7" fill="#b84a4a" fill-opacity="0.72" stroke="white" stroke-width="0.7"/><circle cx="90.0" cy="560.0" r="4.7" fill="#b84a4a" fill-opacity="0.72" stroke="white" stroke-width="0.7"/><circle cx="749.8" cy="107.6" r="4.5" fill="#b84a4a" fill-opacity="0.72" stroke="white" stroke-width="0.7"/><circle cx="371.5" cy="362.8" r="4.5" fill="#b84a4a" fill-opacity="0.72" stroke="white" stroke-width="0.7"/><circle cx="541.8" cy="364.1" r="4.5" fill="#b84a4a" fill-opacity="0.72" stroke="white" stroke-width="0.7"/><circle cx="749.8" cy="107.6" r="4.5" fill="#b84a4a" fill-opacity="0.72" stroke="white" stroke-width="0.7"/><circle cx="90.0" cy="560.0" r="4.5" fill="#b84a4a" fill-opacity="0.72" stroke="white" stroke-width="0.7"/><circle cx="749.8" cy="107.6" r="4.5" fill="#b84a4a" fill-opacity="0.72" stroke="white" stroke-width="0.7"/><circle cx="90.0" cy="560.0" r="4.5" fill="#b84a4a" fill-opacity="0.72" stroke="white" stroke-width="0.7"/><circle cx="712.1" cy="107.6" r="4.2" fill="#b84a4a" fill-opacity="0.72" stroke="white" stroke-width="0.7"/><circle cx="155.1" cy="548.3" r="4.2" fill="#b84a4a" fill-opacity="0.72" stroke="white" stroke-width="0.7"/><circle cx="90.0" cy="560.0" r="4.2" fill="#b84a4a" fill-opacity="0.72" stroke="white" stroke-width="0.7"/><circle cx="90.0" cy="560.0" r="4.2" fill="#b84a4a" fill-opacity="0.72" stroke="white" stroke-width="0.7"/><circle cx="118.9" cy="544.5" r="4.2" fill="#b84a4a" fill-opacity="0.72" stroke="white" stroke-width="0.7"/><circle cx="118.8" cy="515.0" r="4.2" fill="#b84a4a" fill-opacity="0.72" stroke="white" stroke-width="0.7"/><circle cx="144.6" cy="552.3" r="4.2" fill="#b84a4a" fill-opacity="0.72" stroke="white" stroke-width="0.7"/><circle cx="159.2" cy="450.8" r="4.9" fill="#4f8fa8" fill-opacity="0.72" stroke="white" stroke-width="0.7"/><circle cx="158.4" cy="520.0" r="4.9" fill="#4f8fa8" fill-opacity="0.72" stroke="white" stroke-width="0.7"/><circle cx="155.6" cy="542.4" r="4.2" fill="#4f8fa8" fill-opacity="0.72" stroke="white" stroke-width="0.7"/><circle cx="153.0" cy="538.9" r="4.9" fill="#4f8fa8" fill-opacity="0.72" stroke="white" stroke-width="0.7"/><circle cx="159.5" cy="448.7" r="5.1" fill="#4f8fa8" fill-opacity="0.72" stroke="white" stroke-width="0.7"/><circle cx="157.6" cy="458.4" r="5.1" fill="#4f8fa8" fill-opacity="0.72" stroke="white" stroke-width="0.7"/><circle cx="158.4" cy="503.7" r="5.1" fill="#4f8fa8" fill-opacity="0.72" stroke="white" stroke-width="0.7"/><circle cx="159.8" cy="537.8" r="4.2" fill="#4f8fa8" fill-opacity="0.72" stroke="white" stroke-width="0.7"/><circle cx="154.0" cy="514.5" r="4.9" fill="#4f8fa8" fill-opacity="0.72" stroke="white" stroke-width="0.7"/><circle cx="142.8" cy="510.3" r="4.9" fill="#4f8fa8" fill-opacity="0.72" stroke="white" stroke-width="0.7"/><circle cx="143.3" cy="554.9" r="4.2" fill="#4f8fa8" fill-opacity="0.72" stroke="white" stroke-width="0.7"/><circle cx="159.7" cy="542.4" r="4.2" fill="#4f8fa8" fill-opacity="0.72" stroke="white" stroke-width="0.7"/><circle cx="151.2" cy="544.8" r="4.2" fill="#4f8fa8" fill-opacity="0.72" stroke="white" stroke-width="0.7"/><circle cx="159.9" cy="536.8" r="4.9" fill="#4f8fa8" fill-opacity="0.72" stroke="white" stroke-width="0.7"/><circle cx="155.1" cy="509.1" r="4.9" fill="#4f8fa8" fill-opacity="0.72" stroke="white" stroke-width="0.7"/><circle cx="159.5" cy="546.6" r="4.2" fill="#4f8fa8" fill-opacity="0.72" stroke="white" stroke-width="0.7"/><circle cx="159.8" cy="531.7" r="4.2" fill="#4f8fa8" fill-opacity="0.72" stroke="white" stroke-width="0.7"/><circle cx="159.9" cy="518.4" r="4.2" fill="#4f8fa8" fill-opacity="0.72" stroke="white" stroke-width="0.7"/><circle cx="150.3" cy="363.8" r="4.9" fill="#4f8fa8" fill-opacity="0.72" stroke="white" stroke-width="0.7"/><text x="156.3" y="357.8" class="axis">terminal-bench: thinkingmachines/inkling</text><circle cx="159.3" cy="541.7" r="4.2" fill="#4f8fa8" fill-opacity="0.72" stroke="white" stroke-width="0.7"/><circle cx="661.4" cy="168.2" r="4.5" fill="#4f8fa8" fill-opacity="0.72" stroke="white" stroke-width="0.7"/><circle cx="712.1" cy="107.6" r="4.2" fill="#4f8fa8" fill-opacity="0.72" stroke="white" stroke-width="0.7"/><circle cx="379.1" cy="560.0" r="4.2" fill="#4f8fa8" fill-opacity="0.72" stroke="white" stroke-width="0.7"/><circle cx="749.8" cy="107.6" r="4.5" fill="#4f8fa8" fill-opacity="0.72" stroke="white" stroke-width="0.7"/><circle cx="158.7" cy="522.6" r="4.5" fill="#4f8fa8" fill-opacity="0.72" stroke="white" stroke-width="0.7"/><circle cx="159.9" cy="531.7" r="4.2" fill="#4f8fa8" fill-opacity="0.72" stroke="white" stroke-width="0.7"/><circle cx="159.7" cy="493.7" r="4.5" fill="#4f8fa8" fill-opacity="0.72" stroke="white" stroke-width="0.7"/><circle cx="155.8" cy="539.0" r="4.5" fill="#4f8fa8" fill-opacity="0.72" stroke="white" stroke-width="0.7"/><circle cx="159.8" cy="551.2" r="4.2" fill="#4f8fa8" fill-opacity="0.72" stroke="white" stroke-width="0.7"/><circle cx="155.6" cy="551.2" r="4.2" fill="#4f8fa8" fill-opacity="0.72" stroke="white" stroke-width="0.7"/><circle cx="159.9" cy="526.7" r="4.2" fill="#4f8fa8" fill-opacity="0.72" stroke="white" stroke-width="0.7"/><circle cx="145.4" cy="541.7" r="4.2" fill="#4f8fa8" fill-opacity="0.72" stroke="white" stroke-width="0.7"/><circle cx="146.2" cy="544.8" r="4.2" fill="#4f8fa8" fill-opacity="0.72" stroke="white" stroke-width="0.7"/><circle cx="140.4" cy="546.6" r="4.2" fill="#4f8fa8" fill-opacity="0.72" stroke="white" stroke-width="0.7"/><circle cx="155.0" cy="542.4" r="4.2" fill="#4f8fa8" fill-opacity="0.72" stroke="white" stroke-width="0.7"/><circle cx="150.6" cy="546.6" r="4.2" fill="#4f8fa8" fill-opacity="0.72" stroke="white" stroke-width="0.7"/><circle cx="154.1" cy="541.7" r="4.2" fill="#4f8fa8" fill-opacity="0.72" stroke="white" stroke-width="0.7"/><circle cx="155.6" cy="542.4" r="4.2" fill="#4f8fa8" fill-opacity="0.72" stroke="white" stroke-width="0.7"/><circle cx="152.9" cy="551.2" r="4.2" fill="#4f8fa8" fill-opacity="0.72" stroke="white" stroke-width="0.7"/><circle cx="155.8" cy="541.7" r="4.2" fill="#4f8fa8" fill-opacity="0.72" stroke="white" stroke-width="0.7"/><circle cx="159.9" cy="539.7" r="4.2" fill="#4f8fa8" fill-opacity="0.72" stroke="white" stroke-width="0.7"/><circle cx="712.1" cy="107.6" r="4.2" fill="#4f8fa8" fill-opacity="0.72" stroke="white" stroke-width="0.7"/><circle cx="155.4" cy="500.1" r="4.2" fill="#4f8fa8" fill-opacity="0.72" stroke="white" stroke-width="0.7"/><circle cx="155.2" cy="519.3" r="4.2" fill="#4f8fa8" fill-opacity="0.72" stroke="white" stroke-width="0.7"/><circle cx="153.6" cy="551.2" r="4.2" fill="#4f8fa8" fill-opacity="0.72" stroke="white" stroke-width="0.7"/><circle cx="155.0" cy="551.2" r="4.2" fill="#4f8fa8" fill-opacity="0.72" stroke="white" stroke-width="0.7"/><circle cx="153.1" cy="531.7" r="4.2" fill="#4f8fa8" fill-opacity="0.72" stroke="white" stroke-width="0.7"/><circle cx="150.6" cy="539.7" r="4.2" fill="#4f8fa8" fill-opacity="0.72" stroke="white" stroke-width="0.7"/><circle cx="159.6" cy="523.3" r="4.2" fill="#4f8fa8" fill-opacity="0.72" stroke="white" stroke-width="0.7"/><circle cx="155.8" cy="554.9" r="4.2" fill="#4f8fa8" fill-opacity="0.72" stroke="white" stroke-width="0.7"/><circle cx="145.0" cy="551.2" r="4.2" fill="#4f8fa8" fill-opacity="0.72" stroke="white" stroke-width="0.7"/><circle cx="154.3" cy="551.2" r="4.2" fill="#4f8fa8" fill-opacity="0.72" stroke="white" stroke-width="0.7"/><circle cx="90.0" cy="560.0" r="4.2" fill="#4f8fa8" fill-opacity="0.72" stroke="white" stroke-width="0.7"/><circle cx="159.9" cy="529.5" r="4.2" fill="#4f8fa8" fill-opacity="0.72" stroke="white" stroke-width="0.7"/><circle cx="154.1" cy="546.6" r="4.2" fill="#4f8fa8" fill-opacity="0.72" stroke="white" stroke-width="0.7"/><circle cx="154.5" cy="546.6" r="4.2" fill="#4f8fa8" fill-opacity="0.72" stroke="white" stroke-width="0.7"/><circle cx="158.2" cy="523.3" r="4.2" fill="#4f8fa8" fill-opacity="0.72" stroke="white" stroke-width="0.7"/><circle cx="159.9" cy="520.3" r="4.2" fill="#4f8fa8" fill-opacity="0.72" stroke="white" stroke-width="0.7"/><circle cx="155.0" cy="551.2" r="4.2" fill="#4f8fa8" fill-opacity="0.72" stroke="white" stroke-width="0.7"/><circle cx="148.0" cy="524.4" r="4.2" fill="#4f8fa8" fill-opacity="0.72" stroke="white" stroke-width="0.7"/><circle cx="149.4" cy="551.2" r="4.2" fill="#4f8fa8" fill-opacity="0.72" stroke="white" stroke-width="0.7"/><circle cx="146.9" cy="546.6" r="4.2" fill="#4f8fa8" fill-opacity="0.72" stroke="white" stroke-width="0.7"/><circle cx="147.7" cy="541.7" r="4.2" fill="#4f8fa8" fill-opacity="0.72" stroke="white" stroke-width="0.7"/><circle cx="146.6" cy="541.7" r="4.2" fill="#4f8fa8" fill-opacity="0.72" stroke="white" stroke-width="0.7"/><circle cx="148.7" cy="531.7" r="4.2" fill="#4f8fa8" fill-opacity="0.72" stroke="white" stroke-width="0.7"/><circle cx="146.9" cy="529.1" r="4.2" fill="#4f8fa8" fill-opacity="0.72" stroke="white" stroke-width="0.7"/><circle cx="150.0" cy="549.8" r="4.2" fill="#4f8fa8" fill-opacity="0.72" stroke="white" stroke-width="0.7"/><circle cx="146.6" cy="539.7" r="4.2" fill="#4f8fa8" fill-opacity="0.72" stroke="white" stroke-width="0.7"/><circle cx="138.9" cy="541.7" r="4.2" fill="#4f8fa8" fill-opacity="0.72" stroke="white" stroke-width="0.7"/><circle cx="151.8" cy="531.7" r="4.2" fill="#4f8fa8" fill-opacity="0.72" stroke="white" stroke-width="0.7"/><circle cx="155.2" cy="539.7" r="4.2" fill="#4f8fa8" fill-opacity="0.72" stroke="white" stroke-width="0.7"/><circle cx="156.3" cy="537.8" r="4.2" fill="#4f8fa8" fill-opacity="0.72" stroke="white" stroke-width="0.7"/><circle cx="152.1" cy="524.8" r="4.2" fill="#4f8fa8" fill-opacity="0.72" stroke="white" stroke-width="0.7"/><circle cx="151.2" cy="519.7" r="4.2" fill="#4f8fa8" fill-opacity="0.72" stroke="white" stroke-width="0.7"/><circle cx="90.0" cy="560.0" r="4.2" fill="#4f8fa8" fill-opacity="0.72" stroke="white" stroke-width="0.7"/><circle cx="159.6" cy="528.3" r="4.2" fill="#4f8fa8" fill-opacity="0.72" stroke="white" stroke-width="0.7"/><circle cx="155.4" cy="546.6" r="4.2" fill="#4f8fa8" fill-opacity="0.72" stroke="white" stroke-width="0.7"/><circle cx="90.0" cy="560.0" r="4.2" fill="#b08b38" fill-opacity="0.72" stroke="white" stroke-width="0.7"/><circle cx="369.9" cy="384.8" r="4.7" fill="#777777" fill-opacity="0.72" stroke="white" stroke-width="0.7"/><circle cx="90.0" cy="560.0" r="4.5" fill="#777777" fill-opacity="0.72" stroke="white" stroke-width="0.7"/><circle cx="581.8" cy="240.1" r="4.9" fill="#3568a9" fill-opacity="0.72" stroke="white" stroke-width="0.7"/><circle cx="90.0" cy="560.0" r="4.7" fill="#d9783a" fill-opacity="0.72" stroke="white" stroke-width="0.7"/><text x="490.0" y="622" text-anchor="middle" class="label">Binomial reference SD</text><text transform="translate(22 322.5) rotate(-90)" text-anchor="middle" class="label">Observed run-score SD</text></svg>