<svg xmlns="http://www.w3.org/2000/svg" width="1060" height="650" viewBox="0 0 1060 650" role="img"><rect width="100%" height="100%" fill="#fbfaf7"/><style>text{font-family:-apple-system,BlinkMacSystemFont,Segoe UI,Arial,sans-serif;fill:#202124}.title{font-size:20px;font-weight:700}.subtitle{font-size:12px;fill:#6b7280}.axis{font-size:11px;fill:#6b7280}.label{font-size:11px}.value{font-size:11px;font-weight:600}</style><text x="210" y="30" class="title">Repeated cells span very different performance regions</text><text x="210" y="51" class="subtitle">Distribution of cell mean scores among metadata-matched cells with at least three runs</text><line x1="210.0" y1="75" x2="210.0" y2="595" stroke="#ddd9d0"/><text x="210.0" y="617" text-anchor="middle" class="axis">0.00</text><line x1="372.0" y1="75" x2="372.0" y2="595" stroke="#ddd9d0"/><text x="372.0" y="617" text-anchor="middle" class="axis">0.20</text><line x1="534.0" y1="75" x2="534.0" y2="595" stroke="#ddd9d0"/><text x="534.0" y="617" text-anchor="middle" class="axis">0.40</text><line x1="696.0" y1="75" x2="696.0" y2="595" stroke="#ddd9d0"/><text x="696.0" y="617" text-anchor="middle" class="axis">0.60</text><line x1="858.0" y1="75" x2="858.0" y2="595" stroke="#ddd9d0"/><text x="858.0" y="617" text-anchor="middle" class="axis">0.80</text><line x1="1020.0" y1="75" x2="1020.0" y2="595" stroke="#ddd9d0"/><text x="1020.0" y="617" text-anchor="middle" class="axis">1.00</text><text x="200" y="97.6" text-anchor="end" class="label">vcb</text><line x1="210.0" y1="93.6" x2="1020.0" y2="93.6" stroke="#6b7280"/><rect x="243.4" y="84.3" width="626.1" height="18.6" fill="#3568a9" fill-opacity="0.7"/><line x1="608.8" y1="83.2" x2="608.8" y2="104.0" stroke="#202124" stroke-width="2"/><text x="200" y="134.7" text-anchor="end" class="label">terminal-bench</text><line x1="210.0" y1="130.7" x2="1020.0" y2="130.7" stroke="#6b7280"/><rect x="616.5" y="121.4" width="176.0" height="18.6" fill="#3568a9" fill-opacity="0.7"/><line x1="753.0" y1="120.3" x2="753.0" y2="141.1" stroke="#202124" stroke-width="2"/><text x="200" y="171.9" text-anchor="end" class="label">swebench</text><line x1="210.0" y1="167.9" x2="1020.0" y2="167.9" stroke="#6b7280"/><rect x="501.6" y="158.6" width="335.8" height="18.6" fill="#3568a9" fill-opacity="0.7"/><line x1="615.0" y1="157.5" x2="615.0" y2="178.3" stroke="#202124" stroke-width="2"/><text x="200" y="209.0" text-anchor="end" class="label">snap</text><line x1="210.0" y1="205.0" x2="1020.0" y2="205.0" stroke="#6b7280"/><rect x="537.9" y="195.7" width="382.8" height="18.6" fill="#3568a9" fill-opacity="0.7"/><line x1="665.6" y1="194.6" x2="665.6" y2="215.4" stroke="#202124" stroke-width="2"/><text x="200" y="246.1" text-anchor="end" class="label">code-migration</text><line x1="210.0" y1="242.1" x2="881.1" y2="242.1" stroke="#6b7280"/><rect x="238.6" y="232.9" width="247.2" height="18.6" fill="#3568a9" fill-opacity="0.7"/><line x1="389.7" y1="231.7" x2="389.7" y2="252.5" stroke="#202124" stroke-width="2"/><text x="200" y="283.3" text-anchor="end" class="label">fabv2-internal</text><line x1="212.3" y1="279.3" x2="858.0" y2="279.3" stroke="#6b7280"/><rect x="480.0" y="270.0" width="165.9" height="18.6" fill="#3568a9" fill-opacity="0.7"/><line x1="601.0" y1="268.9" x2="601.0" y2="289.7" stroke="#202124" stroke-width="2"/><text x="200" y="320.4" text-anchor="end" class="label">skillsbench</text><line x1="357.3" y1="316.4" x2="1020.0" y2="316.4" stroke="#6b7280"/><rect x="460.8" y="307.1" width="180.1" height="18.6" fill="#3568a9" fill-opacity="0.7"/><line x1="562.3" y1="306.0" x2="562.3" y2="326.8" stroke="#202124" stroke-width="2"/><text x="200" y="357.6" text-anchor="end" class="label">cyberbench</text><line x1="223.5" y1="353.6" x2="1020.0" y2="353.6" stroke="#6b7280"/><rect x="693.7" y="344.3" width="176.1" height="18.6" fill="#3568a9" fill-opacity="0.7"/><line x1="794.7" y1="343.2" x2="794.7" y2="364.0" stroke="#202124" stroke-width="2"/><text x="200" y="394.7" text-anchor="end" class="label">valsmith</text><line x1="210.0" y1="390.7" x2="291.0" y2="390.7" stroke="#6b7280"/><rect x="230.2" y="381.4" width="40.5" height="18.6" fill="#3568a9" fill-opacity="0.7"/><line x1="250.5" y1="380.3" x2="250.5" y2="401.1" stroke="#202124" stroke-width="2"/><text x="200" y="431.9" text-anchor="end" class="label">proof-bench</text><line x1="210.0" y1="427.9" x2="781.1" y2="427.9" stroke="#6b7280"/><rect x="210.0" y="418.6" width="363.9" height="18.6" fill="#3568a9" fill-opacity="0.7"/><line x1="232.7" y1="417.5" x2="232.7" y2="438.3" stroke="#202124" stroke-width="2"/><text x="200" y="469.0" text-anchor="end" class="label">legal-research</text><line x1="210.0" y1="465.0" x2="615.0" y2="465.0" stroke="#6b7280"/><rect x="210.0" y="455.7" width="259.6" height="18.6" fill="#3568a9" fill-opacity="0.7"/><line x1="291.0" y1="454.6" x2="291.0" y2="475.4" stroke="#202124" stroke-width="2"/><text x="200" y="506.1" text-anchor="end" class="label">harvey-legal-agent</text><line x1="210.0" y1="502.1" x2="383.6" y2="502.1" stroke="#6b7280"/><rect x="210.0" y="492.9" width="37.6" height="18.6" fill="#3568a9" fill-opacity="0.7"/><line x1="210.0" y1="491.7" x2="210.0" y2="512.5" stroke="#202124" stroke-width="2"/><text x="200" y="543.3" text-anchor="end" class="label">programbench</text><line x1="210.0" y1="539.3" x2="1020.0" y2="539.3" stroke="#6b7280"/><rect x="230.2" y="530.0" width="587.2" height="18.6" fill="#3568a9" fill-opacity="0.7"/><line x1="419.0" y1="528.9" x2="419.0" y2="549.7" stroke="#202124" stroke-width="2"/><text x="200" y="580.4" text-anchor="end" class="label">emb</text><line x1="212.9" y1="576.4" x2="704.0" y2="576.4" stroke="#6b7280"/><rect x="213.7" y="567.1" width="250.1" height="18.6" fill="#3568a9" fill-opacity="0.7"/><line x1="298.8" y1="566.0" x2="298.8" y2="586.8" stroke="#202124" stroke-width="2"/></svg>