<svg xmlns="http://www.w3.org/2000/svg" width="1060" height="620" viewBox="0 0 1060 620" role="img"><rect width="100%" height="100%" fill="#fbfaf7"/><style>text{font-family:-apple-system,BlinkMacSystemFont,Segoe UI,Arial,sans-serif;fill:#202124}.title{font-size:20px;font-weight:700}.subtitle{font-size:12px;fill:#6b7280}.axis{font-size:11px;fill:#6b7280}.label{font-size:11px}.value{font-size:11px;font-weight:600}</style><text x="180" y="30" class="title">Variance decomposition: between systems versus within runs</text><text x="180" y="50" class="subtitle">REML random-intercept estimates; bars sum to 100% of modeled variance</text><rect x="180" y="64" width="12" height="12" fill="#3568a9"/><text x="198" y="75" class="axis">Between systems</text><rect x="313.5" y="64" width="12" height="12" fill="#d9783a"/><text x="331.5" y="75" class="axis">Within runs</text><text x="170" y="107.3" text-anchor="end" class="label">terminal-bench</text><rect x="180.0" y="96.0" width="640.6" height="20.6" fill="#3568a9"/><rect x="820.6" y="96.0" width="127.6" height="20.6" fill="#d9783a"/><text x="954.2" y="110.3" class="axis">100</text><text x="170" y="140.5" text-anchor="end" class="label">fabv2-internal</text><rect x="180.0" y="129.2" width="750.2" height="20.6" fill="#3568a9"/><rect x="930.2" y="129.2" width="17.9" height="20.6" fill="#d9783a"/><text x="954.2" y="143.5" class="axis">100</text><text x="170" y="173.7" text-anchor="end" class="label">cyberbench</text><rect x="180.0" y="162.4" width="518.1" height="20.6" fill="#3568a9"/><rect x="698.1" y="162.4" width="250.0" height="20.6" fill="#d9783a"/><text x="954.2" y="176.7" class="axis">100</text><text x="170" y="206.9" text-anchor="end" class="label">proof-bench</text><rect x="180.0" y="195.6" width="438.7" height="20.6" fill="#3568a9"/><rect x="618.7" y="195.6" width="329.5" height="20.6" fill="#d9783a"/><text x="954.2" y="209.9" class="axis">100</text><text x="170" y="240.1" text-anchor="end" class="label">swebench</text><rect x="180.0" y="228.8" width="0.0" height="20.6" fill="#3568a9"/><rect x="180.0" y="228.8" width="768.2" height="20.6" fill="#d9783a"/><text x="954.2" y="243.1" class="axis">100</text><text x="170" y="273.3" text-anchor="end" class="label">skillsbench</text><rect x="180.0" y="262.1" width="522.2" height="20.6" fill="#3568a9"/><rect x="702.2" y="262.1" width="246.0" height="20.6" fill="#d9783a"/><text x="954.2" y="276.3" class="axis">100</text><text x="170" y="306.6" text-anchor="end" class="label">cpse-bench</text><rect x="180.0" y="295.3" width="317.6" height="20.6" fill="#3568a9"/><rect x="497.6" y="295.3" width="450.6" height="20.6" fill="#d9783a"/><text x="954.2" y="309.5" class="axis">100</text><text x="170" y="339.8" text-anchor="end" class="label">vcb</text><rect x="180.0" y="328.5" width="392.7" height="20.6" fill="#3568a9"/><rect x="572.7" y="328.5" width="375.5" height="20.6" fill="#d9783a"/><text x="954.2" y="342.8" class="axis">100</text><text x="170" y="373.0" text-anchor="end" class="label">programbench</text><rect x="180.0" y="361.7" width="565.8" height="20.6" fill="#3568a9"/><rect x="745.8" y="361.7" width="202.4" height="20.6" fill="#d9783a"/><text x="954.2" y="376.0" class="axis">100</text><text x="170" y="406.2" text-anchor="end" class="label">harvey-legal-agent</text><rect x="180.0" y="394.9" width="752.8" height="20.6" fill="#3568a9"/><rect x="932.8" y="394.9" width="15.4" height="20.6" fill="#d9783a"/><text x="954.2" y="409.2" class="axis">100</text><text x="170" y="439.4" text-anchor="end" class="label">ioi</text><rect x="180.0" y="428.1" width="744.9" height="20.6" fill="#3568a9"/><rect x="924.9" y="428.1" width="23.2" height="20.6" fill="#d9783a"/><text x="954.2" y="442.4" class="axis">100</text><text x="170" y="472.6" text-anchor="end" class="label">code-migration</text><rect x="180.0" y="461.3" width="259.9" height="20.6" fill="#3568a9"/><rect x="439.9" y="461.3" width="508.3" height="20.6" fill="#d9783a"/><text x="954.2" y="475.6" class="axis">100</text><text x="170" y="505.8" text-anchor="end" class="label">emb</text><rect x="180.0" y="494.6" width="0.0" height="20.6" fill="#3568a9"/><rect x="180.0" y="494.6" width="768.2" height="20.6" fill="#d9783a"/><text x="954.2" y="508.8" class="axis">100</text><text x="170" y="539.1" text-anchor="end" class="label">snap</text><rect x="180.0" y="527.8" width="658.8" height="20.6" fill="#3568a9"/><rect x="838.8" y="527.8" width="109.4" height="20.6" fill="#d9783a"/><text x="954.2" y="542.0" class="axis">100</text></svg>